<?xml version="1.0" encoding="UTF-8"?><svg xmlns="http://www.w3.org/2000/svg" viewBox="0 0 293.9 335.6"><defs><style>.i{fill:#ed8947;}.j{fill:#4f9236;}.k{fill:#7fb06c;}.l{fill:#804b40;}.m{fill:#e54d56;}.n{fill:#eec31b;}.o{fill:#dd85b1;}</style></defs><g id="a"/><g id="b"><g id="c"><path class="l" d="M48.35,331.25v4.05c0,.16-.13,.3-.3,.3h-1.51c-.16,0-.3-.13-.3-.3v-4.05h-5.85v-.63h5.85v-2.02h-4.05c-.16,0-.3-.13-.3-.3v-5.47c0-.16,.13-.3,.3-.3h10.28c.16,0,.3,.13,.3,.3v5.47c0,.16-.13,.3-.3,.3h-4.13v2.02h5.94v.63h-5.94Zm2.33-8.16h-6.69c-.08,0-.15,.07-.15,.15v1.83c0,.08,.07,.15,.15,.15h6.69c.08,0,.15-.07,.15-.15v-1.83c0-.08-.07-.15-.15-.15Zm0,2.68h-6.69c-.08,0-.15,.07-.15,.15v1.97c0,.08,.07,.15,.15,.15h6.69c.08,0,.15-.07,.15-.15v-1.97c0-.08-.07-.15-.15-.15Z"/><path class="l" d="M62.11,335.56c-.11,0-.2-.09-.2-.21v-5.9l-1.08,1.08c-.19-.83-.46-1.84-.74-2.55v7.37c0,.11-.09,.21-.21,.21h-1.27c-.11,0-.21-.09-.21-.21v-5.78c-.45,1.02-.97,1.99-1.56,2.76l-.42-.26c.74-1.62,1.33-3.55,1.56-5.49h-1.47v-.56h1.88v-1.99c-.57,.08-1.13,.15-1.68,.2l-.19-.45c1.48-.6,2.57-1.35,3.33-1.98,.08-.06,.18-.06,.25,0l1.78,1.45c-.54,.17-1.16,.34-1.82,.46v2.3h1.74v.56h-1.74v.76c.59,.43,1.28,1.02,1.82,1.62v-1.33h1.48c.11,0,.21,.09,.21,.21v7.53c0,.11-.09,.21-.21,.21h-1.27Zm7.4-12.47c.11,.09,.07,.26-.07,.29-2.45,.47-5.44,.8-7.89,.84l-.19-.48c2.41-.45,4.76-1.18,6.39-1.98,.07-.04,.15-.02,.21,.03l1.53,1.29Zm-6.1,4.26c-.12,.09-.28,.04-.32-.1-.14-.5-.45-1.53-.96-2.37l.35-.31c.82,.48,1.7,1.26,2.06,1.6,.09,.09,.08,.23-.02,.31l-1.12,.88Zm4.7,8.2v-.83h-1.91v.83h-1.43c-.11,0-.21-.09-.21-.21v-7.38c0-.11,.09-.21,.21-.21h4.77c.11,0,.21,.09,.21,.21v7.39c0,.11-.09,.21-.21,.21h-1.43Zm-2.55-8.41c-.13,.08-.29,0-.31-.15-.06-.52-.23-1.58-.61-2.48l.39-.25c.78,.53,1.57,1.42,1.89,1.81,.08,.1,.05,.24-.06,.3l-1.29,.76Zm2.55,1.17h-1.91v2.5h1.91v-2.5Zm0,3.05h-1.91v2.81h1.91v-2.81Zm-1.14-4.09c.43-.98,.67-2,.8-3.04,.02-.13,.15-.21,.28-.16l1.3,.54c.23,.1,.28,.24,.22,.35-.53,.88-1.26,1.74-2.18,2.55l-.42-.25Z"/><path class="l" d="M83.16,335.58v-1.34h-8.16v1.34h-1.68c-.09,0-.17-.08-.17-.17v-12.18c0-.09,.08-.17,.17-.17h11.52c.09,0,.17,.08,.17,.17v12.19c0,.1-.08,.17-.17,.17h-1.68Zm-5.17-11.92h-2.82c-.09,0-.17,.08-.17,.17v4.18c0,.09,.08,.17,.17,.17h2.82c.09,0,.17-.08,.17-.17v-4.18c0-.09-.08-.17-.17-.17Zm0,5.09h-2.82c-.09,0-.17,.08-.17,.17v4.51c0,.09,.08,.17,.17,.17h2.82c.09,0,.17-.08,.17-.17v-4.51c0-.09-.08-.17-.17-.17Zm5-5.09h-2.86c-.09,0-.17,.08-.17,.17v4.18c0,.09,.08,.17,.17,.17h2.86c.09,0,.17-.08,.17-.17v-4.18c0-.09-.08-.17-.17-.17Zm0,5.09h-2.86c-.09,0-.17,.08-.17,.17v4.51c0,.09,.08,.17,.17,.17h2.86c.09,0,.17-.08,.17-.17v-4.51c0-.09-.08-.17-.17-.17Z"/><path class="l" d="M100.08,329.45c-.85-.33-1.67-.76-2.3-1.24h-6.35c-1.11,.65-2.31,1.13-3.9,1.51l-.15-.52c3.22-1.17,5.15-3.1,5.6-5.52h-1.6s-.23,.28-.36,.39c.2,.14,.8,.49,1.42,1.02l-1.33,1.13c-.08-.86-.29-1.56-.39-1.84-.32,.32-.76,.71-1.11,1,.2,.18,.67,.61,1.13,1.14,.1,.11,.07,.29-.06,.37l-1.25,.75v-.15c0-.79-.11-1.5-.17-1.82-.43,.32-.85,.62-1.25,.86l-.29-.39c1.1-1.13,2.03-2.84,2.42-4.15,.04-.12,.16-.19,.28-.16l2.05,.47c-.2,.29-.35,.51-.62,.82h2.85c-.11-.35-.22-.76-.22-.76l.43-.17c.54,1.54,1.23,2.64,2.34,3.61,.51-.69,.91-1.56,1.06-2.36h-2.47v-.54h4.61v.85c-.71,1.02-1.76,1.9-2.68,2.42,.89,.58,1.99,.97,3.17,1.14,.16,.02,.25,.19,.19,.33l-.76,1.69c-.05,.12-.19,.18-.31,.13Zm-12.51,4.99c1.15-.87,2.03-1.96,2.72-3.23,.07-.12,.22-.16,.33-.09l1.53,.92c.14,.09,.16,.29,.04,.4-1.27,1.09-2.83,1.98-4.36,2.46l-.26-.45Zm7.85-3.92v3.13c0,1.09-.15,1.93-1.59,1.93-.56,0-1.33-.12-2.38-.43v-.65c.63,.12,1.06,.2,1.36,.2,.62,0,.66-.29,.66-1.05v-3.13h-5.44v-.54h12.59v.54h-5.2Zm1.74-2.85c-.96-.96-1.68-2.19-2.22-3.81v.14c-.57,1.6-1.37,2.76-2.65,3.67h4.87Zm2.71,7c-.08,.13-.27,.15-.38,.04-1.04-1.1-2.1-2.1-3.24-2.95l.54-.64c.06-.06,.16-.08,.24-.06,1.36,.38,2.41,1.14,3.68,1.69,.14,.06,.2,.23,.12,.36l-.97,1.56Z"/><path class="l" d="M104.03,334.71v-1.14c.96-.97,2.42-2.51,3.5-3.68,1.5-1.63,1.97-2.68,1.97-4.08s-.77-2.17-2.08-2.17c-1.02,0-1.96,1.05-2.61,1.92-.1,.13-.62-.15-.56-.3,.78-1.75,2.1-2.54,3.82-2.54,2.42,0,3.53,1.38,3.53,3.17s-.99,2.81-2.95,4.57c-.76,.68-2.17,1.95-2.87,2.6h6.14l-.23,1.22c-.05,.25-.26,.43-.5,.43h-7.18Z"/><path class="l" d="M124.24,334.71v-1.14c.96-.97,2.42-2.51,3.5-3.68,1.5-1.63,1.97-2.68,1.97-4.08s-.77-2.17-2.08-2.17c-1.02,0-1.96,1.05-2.61,1.92-.1,.13-.62-.15-.56-.3,.78-1.75,2.1-2.54,3.82-2.54,2.42,0,3.53,1.38,3.53,3.17s-.99,2.81-2.95,4.57c-.76,.68-2.17,1.95-2.87,2.6h6.14l-.23,1.22c-.05,.25-.26,.43-.5,.43h-7.18Z"/><path class="l" d="M134.05,334.71v-1.14c.96-.97,2.42-2.51,3.5-3.68,1.5-1.63,1.97-2.68,1.97-4.08s-.77-2.17-2.08-2.17c-1.02,0-1.96,1.05-2.61,1.92-.1,.13-.62-.15-.56-.3,.78-1.75,2.1-2.54,3.82-2.54,2.42,0,3.53,1.38,3.53,3.17s-.99,2.81-2.95,4.57c-.76,.68-2.17,1.95-2.87,2.6h6.14l-.23,1.22c-.05,.25-.26,.43-.5,.43h-7.18Z"/><path class="l" d="M113.9,328.85c0-4.35,1.99-6.14,4.24-6.14s4.24,1.95,4.24,6.3-2.04,5.97-4.24,5.97-4.24-1.78-4.24-6.12Zm6.16,.16c0-2.74-.72-5.5-2.14-5.5s-2.17,2.6-2.17,5.35,.79,5.35,2.17,5.35,2.14-2.44,2.14-5.19Z"/><path class="l" d="M158.04,335.22c-.02,.1-.11,.18-.21,.19-.61,.04-1.38,.07-2.27,.07-1.03,0-2.22-.03-3.47-.08-1.63-.06-3.35-.63-4.21-2.3-.42,.53-1.23,1.5-1.97,2.28-.11,.12-.31,.09-.39-.06l-.76-1.44c-.07-.13,0-.29,.14-.34,.74-.24,1.42-.58,1.42-.58v-5.37h-1.28v-.57h2.9c.13,0,.24,.11,.24,.24v5.26c.93,1.03,2.04,1.28,3.9,1.28,1.52,0,4.27-.14,6.05-.41,.17-.03,.31,.13,.27,.3l-.37,1.52Zm-11.35-9.75c-.13,.11-.33,.05-.38-.11-.31-.93-.71-1.74-1.13-2.38l.37-.39c.74,.39,1.55,.87,2.33,1.5,.12,.1,.12,.29,0,.38l-1.19,.99Zm7.5,6.29v1.44c0,.13-.11,.24-.24,.24h-1.2c-.13,0-.24-.11-.24-.24v-1.44h-3.9v-.56h3.9v-1.05h-2.66c-.13,0-.24-.11-.24-.24v-3.88c0-.13,.11-.24,.24-.24h2.66v-.88h-1.8v-.56h1.8v-1.02h1.68v1.02h1.7v.56h-1.7v.88h2.72c.13,0,.24,.11,.24,.24v3.88c0,.13-.11,.24-.24,.24h-2.72v1.05h4.09v.56h-4.09Zm1.82-6.88c.28-.69,.43-1.3,.45-1.91h-6.08v1.47c0,.13-.11,.24-.24,.24h-1.2c-.13,0-.24-.11-.24-.24v-1.78c0-.13,.11-.24,.24-.24h9.21v1.06c0,.05-.02,.1-.05,.15-.41,.58-.88,.85-1.79,1.48l-.31-.22Zm-3.5,1.46h-1.3v1.26h1.3v-1.26Zm0,1.82h-1.3v1.43h1.3v-1.43Zm3.04-1.82h-1.36v1.26h1.36v-1.26Zm0,1.82h-1.36v1.43h1.36v-1.43Z"/><path class="l" d="M171.3,327.34c.18-.55,.37-1.33,.37-2.04v-.08h-9.25v2.06c0,.1-.08,.17-.17,.17h-1.5c-.1,0-.17-.08-.17-.17v-2.46c0-.1,.08-.17,.17-.17h2.62c-.12-.54-.56-1.57-1.11-2.5l.37-.31c1.39,.8,2.54,1.84,2.54,1.84l-1.34,.97h2.71c-.06-.54-.32-1.57-.73-2.67l.4-.26c1.25,.99,2.22,2.08,2.22,2.08l-1.54,.85h2.25c.31-.5,.74-1.62,.96-2.72,.02-.1,.12-.16,.22-.13l1.8,.62c.12,.04,.15,.2,.07,.29-.84,.92-1.59,1.57-2.22,1.94h3.98v.83c-.39,.77-1.33,1.54-2.21,2.14l-.45-.29Zm-.76,8.25v-.94h-6.83v.94h-1.77c-.1,0-.17-.08-.17-.17v-4.28c0-.1,.08-.17,.17-.17h3.5c.11-.43,.17-1.02,.17-1.34h-2.26c-.1,0-.17-.08-.17-.17v-2.82c0-.1,.08-.17,.17-.17h7.47c.1,0,.17,.08,.17,.17v2.82c0,.1-.08,.17-.17,.17h-2.82c-.34,.35-1.17,1-1.79,1.34h6.1c.1,0,.17,.08,.17,.17v4.29c0,.1-.08,.17-.17,.17h-1.77Zm0-4.07h-6.83v2.56h6.83v-2.56Zm-1.4-4.5h-4.12v2.02h4.12v-2.02Z"/><path class="l" d="M186.82,334.66c-1.02-1.5-2.29-3.05-3.87-4.24-1.82,1.97-3.78,3.37-6.8,4.41l-.34-.56c4.3-2.11,6.68-5.48,7.77-9.74h-5.54v-.67h7.99v.69c-.6,2.12-1.42,3.8-2.62,5.34,1.83,.79,3.42,1.63,4.99,2.71,.07,.05,.08,.15,.03,.21l-1.4,1.86c-.06,.08-.17,.08-.22,0Z"/><path class="l" d="M202.51,325.94c-1.25,4.96-5.2,8.19-11.2,9.05l-.29-.58c2.55-.58,4.61-1.72,6.15-3.21-.8-1.1-1.77-1.94-2.65-2.59l.34-.51c1.2,.39,2.33,1.04,3.49,1.77,.93-1.25,1.56-2.67,1.88-4.2h-4.04c-1.14,1.47-2.74,2.73-4.63,3.62l-.42-.43c2.1-1.39,3.61-3.88,4.28-6.29,.04-.14,.18-.22,.32-.18l1.74,.5c.16,.05,.24,.23,.17,.38-.29,.62-.59,1.15-.99,1.74h5.84v.93Z"/><path class="l" d="M207.84,330.37c-.1,.06-.23,0-.26-.12-.32-1.21-.77-2.22-1.31-3.04l.41-.31c.99,.75,1.65,1.49,2.44,2.46,.07,.09,.05,.23-.05,.29l-1.23,.72Zm-.33,4.1c3.54-1.11,5.14-3.29,5.61-7.63,.01-.11,.11-.19,.22-.17l1.31,.29c.09,.02,.16,.12,.14,.22-.63,4.53-2.75,6.75-6.95,7.72l-.34-.44Zm2.56-4.79c-.1,.06-.23,0-.26-.12-.32-1.21-.71-2.24-1.25-3.07l.4-.28c.98,.78,1.65,1.54,2.42,2.5,.07,.09,.05,.23-.05,.29l-1.25,.67Z"/><path class="l" d="M219.48,334.3c4.48-1.44,7.1-4.54,7.81-9.06,.02-.15-.09-.3-.24-.3h-8.2v-.82h10.86v.94c-.77,5.44-4.07,8.65-9.96,9.78l-.26-.53Z"/><path class="l" d="M235.45,335.31v-3.76c-.74,1.11-1.56,1.99-2.56,2.76l-.29-.34c.91-1.3,1.73-3.01,2.14-4.46h-1.51v-.54h2.22v-1.54h-2.48v-.54h1.62c-.2-1.39-.62-2.51-.62-2.51l.37-.26s.99,.94,1.93,2.08l-1.17,.69h1.48c.37-.9,.57-1.92,.66-2.45,.03-.18,.22-.28,.38-.21l1.19,.5c.17,.07,.23,.27,.12,.42-.3,.41-.91,1.17-1.65,1.74h2.42v.54h-2.51v1.54h2.22v.54h-2.22v.43c.79,.4,1.61,.91,2.24,1.43,.11,.1,.13,.26,.04,.38l-.97,1.27c-.34-.83-.83-1.8-1.31-2.51v4.8c0,.15-.12,.28-.28,.28h-1.17c-.15,0-.28-.12-.28-.28Zm-2.25-11.38v-.54h2.22v-1.39c0-.15,.12-.28,.28-.28h1.23c.15,0,.28,.12,.28,.28v1.39h2.21v.54h-6.22Zm10.38,11.66c-.15,0-.28-.12-.28-.28v-8.27h-1.51c-.03,3.73-.54,6.65-2.98,8.53l-.37-.34c1.3-1.9,1.57-4.09,1.57-8.44v-2.85c0-.12,.08-.23,.2-.26,1.54-.47,2.98-1.14,3.96-1.83,.1-.07,.23-.06,.32,.01l1.6,1.28c-1.48,.45-3.09,.76-4.3,.88v2.48h4.72v.54h-1.51v8.27c0,.15-.12,.28-.28,.28h-1.14Z"/><path class="l" d="M260.38,335.25c-1.01-1.58-1.59-3.38-1.62-5.56-.46,3.1-1.7,4.75-3.75,5.91l-.26-.34c.32-.32,.6-.65,.85-.96h-4.77v.93h-1.46c-.14,0-.25-.11-.25-.25v-6.17c-.34,.2-.69,.37-1.03,.52l-.25-.39c1.2-.88,2.14-1.9,2.87-3.02h-2.59v-.56h2.92c.34-.59,.6-1.22,.8-1.87h-.96c-.54,.59-1.36,1.28-2.11,1.74l-.37-.29c.73-1.13,1.12-2.4,1.25-2.9,.03-.13,.16-.2,.29-.17l1.89,.44s-.19,.31-.48,.65h4.13v.54h-1.56c-.28,.68-.6,1.3-.99,1.87h2.9v.56h-3.3c-.55,.69-1.2,1.33-1.93,1.9h1.91c.24-.64,.36-1.22,.42-1.55,.03-.14,.16-.23,.3-.19l1.73,.43s-.74,.73-1.74,1.31h2.61v.57h-1.74v1.48h1.79v.51h-1.79v1.39h1.79v.54h-1.79v1.46h1.85c1.05-1.72,1.3-3.76,1.31-7.26,0-.14,.11-.25,.25-.25h1.48c0,.43-.02,.85-.03,1.25,.42,2.76,1.22,4.37,2.64,5.93,.07,.08,.09,.19,.04,.28l-.83,1.5c-.09,.16-.33,.18-.43,.02Zm-7.98-6.86h-1.57v1.48h1.57v-1.48Zm0,1.99h-1.57v1.39h1.57v-1.39Zm0,1.93h-1.57v1.46h1.57v-1.46Zm7.19-4.69c.22-.99,.29-1.91,.29-2.92v-.26h-2.11c-.37,1.08-1.14,2.11-1.94,3.04l-.32-.23c.55-1.52,.88-3.03,1-5.15,0-.15,.14-.26,.29-.23l1.36,.23c.14,.02,.23,.16,.2,.3-.1,.49-.24,.95-.4,1.49h3.52v.73c-.26,1.08-.71,2.08-1.51,3.22l-.37-.22Z"/></g><g id="d"><path class="o" d="M27.7,314.98v-2.04H13.53v1.92c0,.23-.18,.42-.41,.42h-4.9c-.23,0-.41-.19-.41-.42v-15.41c-2.1,1.28-4.38,2.52-7.05,3.58-.07,.03-.16,0-.19-.07l-.55-1.01c-.04-.07-.01-.16,.06-.2,4.26-2.58,7.89-5.65,10.32-8.76H.48c-.22,0-.4-.18-.4-.4v-.81c0-.22,.18-.4,.4-.4H11.58c1.04-1.52,1.91-3.05,2.59-4.66H5.52c-.22,0-.4-.18-.4-.4v-.81c0-.22,.18-.4,.4-.4H14.85c.5-1.39,.95-2.82,1.27-4.3H3.8c-.22,0-.4-.18-.4-.4v-.81c0-.22,.18-.4,.4-.4h12.68c.21-1.22,.37-2.51,.54-3.8,.03-.23,.23-.39,.46-.36l5.65,.7c.24,.03,.4,.25,.36,.49-.19,.97-.46,2.16-.69,2.97h14.55c.22,0,.4,.18,.4,.4v.81c0,.22-.18,.4-.4,.4h-15c-.45,1.48-1,2.91-1.59,4.3h14.59c.22,0,.4,.18,.4,.4v.81c0,.22-.18,.4-.4,.4h-10.5c1.36,1.84,2.86,3.41,4.41,4.66h11.32c.22,0,.4,.18,.4,.4v.81c0,.22-.18,.4-.4,.4h-9.14c2.81,1.92,5.87,3.15,8.97,4.23,.25,.09,.35,.37,.22,.6l-2.91,5.12c-.11,.2-.37,.27-.57,.16-1.43-.81-2.42-1.54-3.72-2.58v14.33c0,.23-.18,.42-.41,.42h-4.9c-.23,0-.41-.19-.41-.3Zm-11.95-21.99c-1.36,1.57-2.91,3-4.72,4.35H29.79c-1.18-1.3-2.27-2.74-3.27-4.35H15.75Zm11.95,5.96H13.53v5.28h14.17v-5.28Zm0,6.89H13.53v5.52h14.17v-5.52Zm-7.72-19.13c-.86,1.61-1.82,3.18-2.91,4.66h8.49c-.77-1.43-1.45-3-2.13-4.66h-3.45Z"/><path class="l" d="M93.45,308.65v-1.72h-16.81v1.71c0,.2-.16,.37-.37,.37h-3.03c-.2,0-.37-.16-.37-.37v-11.47c0-.2,.16-.37,.37-.37h3.03c.2,0,.37,.16,.37,.37v8.69h6.43v-11.62h-8.51c-.31,0-.55-.25-.55-.55v-8.53c0-.2,.16-.37,.37-.37h3.03c.2,0,.37,.16,.37,.37v7.98h5.3v-10.95c0-.2,.16-.37,.37-.37h3.1c.2,0,.37,.16,.37,.37v10.95h5.36v-7.98c0-.2,.16-.37,.37-.37h3c.2,0,.37,.16,.37,.37v8.72c0,.2-.16,.37-.37,.37h-8.73v11.62h6.55v-8.69c0-.2,.16-.37,.37-.37h3c.2,0,.37,.16,.37,.37v11.5c0,.2-.17,.37-.37,.37l-3-.02c-.2,0-.36-.16-.36-.37Z"/><path class="l" d="M221.94,306.02c-.25,.02-.48-.15-.5-.4-.24-2.18-.36-4.57-.36-7.03,0-3.91,.31-8.02,.88-11.85,.04-.25,.26-.42,.51-.39l2.81,.3c.27,.03,.45,.27,.4,.54-.63,3.31-1.26,6.56-1.26,10.12,0,2.59,.5,5.57,.84,7.93,.04,.26-.15,.49-.41,.52l-2.9,.27Zm19.08-1.26c0,.24-.17,.43-.4,.46-1.61,.19-3.35,.3-5.09,.3-.8,0-1.58-.03-2.39-.08-4.16-.24-5.97-1.81-5.97-3.68,0-1.35,.73-2.61,2.34-3.97l.8,.51c-.86,.95-1.09,1.59-1.09,2.3,0,1.14,1.19,1.9,4.02,2.06,.36,.03,.72,.03,1.08,.03,2.05,0,4.3-.27,6.15-.6,.28-.05,.54,.16,.54,.45v2.23Zm-.86-14.33c.01,.29-.24,.51-.53,.47-1.99-.27-3.89-.41-5.69-.41s-3.64,.14-5.36,.41l-.19-1.06c3.39-1.14,7.13-1.79,11.14-2.2,.26-.03,.5,.17,.51,.44l.12,2.34Z"/><path class="l" d="M290.82,307.11c-.28,.25-.72,.2-.93-.11-2.24-3.31-5.12-6.8-8.52-9.46-1.01-.8-1.61-1.6-1.61-2.49s.57-1.83,1.85-2.94c3.14-2.71,5.52-5.44,7.59-8.63,.19-.29,.58-.37,.87-.18l2.86,1.97c.33,.22,.36,.69,.06,.95-2.78,2.43-6.07,4.85-9.86,7.18-.8,.49-1.19,1.03-1.19,1.54,0,.49,.36,.94,1.1,1.4,3.13,1.89,7.26,4.61,10.63,7.25,.29,.23,.3,.67,.03,.92l-2.88,2.61Z"/><g><path class="l" d="M54.41,291.08l5.1-.37c1.8,0,3.7,.14,5.69,.41,.29,.04,.54-.19,.53-.47l-.12-2.34c-.01-.26-.25-.47-.51-.44-3.93,.4-7.6,1.04-10.94,2.14-.12,.05-.18,.19-.15,.33h0l.1,.55c.04,.13,.16,.22,.3,.2Z"/><path class="l" d="M50.83,286.87l-2.81-.3c-.25-.03-.47,.14-.51,.39-.57,3.83-.88,7.94-.88,11.85,0,2.46,.12,4.84,.36,7.03,.03,.25,.25,.43,.5,.4l2.9-.27c.26-.02,.45-.26,.41-.52-.34-2.36-.84-5.34-.84-7.93,0-3.56,.63-6.81,1.26-10.12,.05-.26-.13-.51-.4-.54Z"/><path class="l" d="M66.05,302.29c-1.85,.33-4.1,.6-6.15,.6-.36,0-.72,0-1.08-.03-2.83-.16-4.02-.92-4.02-2.06,0-.66,.21-1.28,.94-2.13,.05-.09,.06-.21-.03-.27l-.46-.29c-.1-.07-.22-.06-.31,.01-1.51,1.31-2.2,2.53-2.2,3.84,0,1.87,1.8,3.44,5.97,3.68,.81,.05,1.58,.08,2.39,.08,1.74,0,3.48-.11,5.09-.3,.23-.03,.4-.23,.4-.46v-2.23c0-.29-.25-.5-.54-.45Z"/></g><g><path class="l" d="M275.99,305.05c-3.42-1.48-6.05-3.97-7.67-7.72h6.73c.19,0,.33-.15,.34-.34v-.45c-.01-.18-.15-.32-.33-.34h-6.97c.13-1.16,.2-2.06,.2-3.42v-3h5.63c.19,0,.34-.16,.35-.35v-.5c0-.15-.12-.28-.3-.28h-6.12c1.98-1.27,4.04-3.01,5.84-5.05,.19-.21,.11-.55-.14-.66l-3.79-1.77c-.24-.11-.51,.02-.58,.27-.64,2.47-1.68,5.07-2.99,7.22h-3.64l3.26-2.32c.21-.15,.24-.46,.06-.64-1.69-1.65-3.79-3.17-5.67-4.22-.11-.03-.2-.05-.32,.04l-.45,.42c-.11,.14-.11,.33-.01,.49,1.13,1.76,2.03,3.74,2.69,6.24h-3.49c-.19,0-.33,.15-.34,.34v.46c.01,.18,.16,.33,.34,.34h5.41v3.03c0,1.35-.03,2.26-.17,3.38h-5.91c-.18,.01-.32,.15-.33,.33v.46c.01,.19,.17,.34,.36,.34h5.72c-.94,6.43-4.56,9.28-8.77,11.39-.14,.06-.23,.24-.18,.37l.26,.53c.07,.13,.24,.21,.38,.15,5.9-2.11,10.67-4.78,12.24-11.54,.67,4.2,2.3,9.12,5.77,11.37,.2,.13,.48,.05,.6-.16l2.16-3.82c.12-.22,.03-.49-.2-.58Z"/><path class="l" d="M257.09,302.18v-17.11c0-.23-.19-.42-.42-.42h-8.58c-.23,0-.42,.19-.42,.42v19.21c0,.23,.19,.42,.42,.42h2.63c.23,0,.42-.19,.42-.42v-1.68h5.53c.23,0,.42-.19,.42-.42Zm-3.47-.74h-2.48v-15.63h2.48v15.63Z"/></g><g><path class="m" d="M192.18,296.82c-1.74-1.87-3.57-3.59-5.59-5.15v-1.85h5.31c.1,0,.19-.08,.19-.19v-1.21c0-.1-.08-.19-.19-.19h-5.31v-7.3c1.49-.32,2.95-.64,4.28-1,.41-.11,.53-.65,.21-.93l-3.93-3.48c-.2-.17-.48-.18-.69-.02-2.72,2.16-6.01,3.98-10.13,5.72-.13,.07-.2,.22-.17,.37l.15,.53h0c.03,.16,.16,.27,.31,.28,1.65-.13,3.37-.34,5.1-.59v6.42h-5.9c-.1,0-.19,.08-.19,.19v1.21c0,.1,.08,.19,.19,.19h5.13c-1.2,5.56-3.37,10.39-6.03,15.21-.06,.11-.03,.24,.07,.32l.76,.57c.11,.08,.26,.06,.34-.04,2.24-2.76,4.3-5.78,5.62-9.01v17.31c0,.3,.24,.54,.54,.54h3.79c.3,0,.54-.24,.54-.54v-21.18c.85,1.92,1.51,4.16,2.06,6.84,.09,.42,.6,.59,.91,.29l2.6-2.54c.21-.21,.22-.55,.02-.77Z"/><path class="m" d="M215.29,307.98c-4.89-3.15-7.1-7.52-8.37-12.35,3.59-2.95,6.05-5.86,8.12-9.84,.15-.28,.02-.64-.28-.76l-4.76-1.94c-.32-.13-.68,.08-.73,.42-.52,3.55-1.48,7.05-2.75,10.4-.59-2.77-.95-5.63-1.4-8.44v-9.22c0-.3-.24-.54-.54-.54h-4.15c-.3,0-.54,.24-.54,.54v12.12c0,8.43-3.01,18.46-9.63,24.73h0c-.2,.13-.26,.37-.19,.59l.42,.68c.13,.13,.32,.17,.5,.12,10.07-5.67,13.27-14.06,13.94-22.03,.44,8.73,1.59,17.22,6.79,21.82,.26,.23,.67,.15,.84-.16l2.92-5.43c.13-.25,.05-.56-.19-.71Z"/><path class="m" d="M191.64,294.2l4.17,2.22c.32,.17,.73-.02,.8-.38,.74-3.88,.98-7.38,.98-11.1v-1.25c0-.23-.14-.43-.35-.51,0,0-1.01-.53-1.14-.22-.35,.85-2.12,6.95-4.63,10.45-.19,.27-.11,.64,.18,.79Z"/></g><path class="l" d="M165.13,305.76c-1.52-1.48-3.89-2.81-6.68-3.59-.13-.05-.27-.02-.36,.09l-.35,.33c-.12,.15-.09,.24,0,.34,1.79,1.28,3.59,3.6,4.54,5.38,.13,.25,.47,.31,.69,.13l2.12-2c.2-.17,.23-.48,.04-.67Z"/><g><path class="l" d="M144.88,290.34c-.31,0-.61,0-.95,.03,0,0-4.23,.14-10.87,2-.42,.12,.35,1.08,.35,1.08,.17,.21,.42,.39,.65,.27,1.07-.58,6.43-1.92,9.4-1.82,1.61,.06,3.61,.64,4.28,2.14,.79,1.76,.66,4.68-1.52,7.28-2.46,3.26-9.12,5.37-9.55,5.42-.43,.04,.18,1.04,.67,.98,1.47-.19,8.64-1.84,11.71-4.51,1.89-1.43,2.85-4.09,2.85-6.32,0-3.27-2.05-6.55-7.02-6.55Z"/><path class="l" d="M136.55,284.8c2.44,1.59,5.99,3.21,9.61,4.04,.33,.08,.65-.14,.72-.47l.6-3.02c.04-.19-.09-.38-.28-.41-.45-.06-.92-.05-1.35-.05-3.32,0-6.46-.42-8.88-1.09-.16-.04-.31,.05-.37,.2l-.16,.41c-.06,.14,0,.3,.12,.38Z"/></g><g><path class="l" d="M128.22,297.15h-25.58c-.16,.03-.28,.15-.31,.31v.48c.02,.16,.14,.28,.3,.29h8.3c-.6,2.01-1.87,4.39-3.43,6.41-1.48,0-2.57-.02-4.01-.05-.32,0-.56,.28-.5,.59l.64,3.12c.05,.26,.29,.43,.55,.39,5.83-.84,12-2.2,17.47-3.56,.86,1,1.8,2.2,2.61,3.52,.17,.28,.56,.32,.78,.08l2.47-2.74c.2-.22,.15-.58-.1-.75-2.89-1.92-5.42-3.18-8.46-4.54h0c-.07-.05-.17-.03-.22,.04l-.52,.62c-.05,.06-.05,.15,0,.21,.81,.73,1.8,1.67,2.53,2.5-3.65,.28-7.77,.47-11.68,.53,2.63-1.58,5.2-4.15,7.33-6.38h11.8c.11,0,.19-.09,.2-.2v-.69c0-.11-.09-.19-.2-.19Z"/><path class="l" d="M129.15,289.91c-4.64-.87-9.18-2.55-12.86-5.4,.34-.44,.66-.88,.99-1.34,.2-.28,.06-.68-.28-.76l-3.81-.99c-.22-.06-.46,.05-.56,.26-2.17,4.35-5.17,8.37-11.5,11.81l.51,.87c6.57-2.26,10.44-4.67,13.99-9.01,3.28,4.06,7.53,7.12,11.59,8.94,.25,.11,.53,0,.65-.24l1.64-3.44c.14-.29-.04-.63-.35-.69Z"/><rect class="l" x="108.48" y="292.5" width="13.73" height="1.25" rx=".17" ry=".17"/></g></g></g><g id="e"><g id="f"><path class="l" d="M129.08,195.25c.32-.03,.35-.82,.25-1.21,.04-.54-.36-2.59-.47-3.12-.55-2.62-.92-3.32-1.24-4.3-3.49-10.47-7.59-21.48-6.3-32.69,1.86-17.49,13.32-31.64,21.26-46.75,2.86-5.18,5.7-10.54,7.06-16.34,3.61-14.66,.27-32.74-9.25-44.75-.53-.67,.09-1.62,.92-1.42,5.43,1.34,10.23,5.11,13.45,9.61,3.87,5.52,5.54,12.3,6.62,18.87,1.55,10.5,.18,21.58-4.61,31.11-3.17,6.44-8.16,11.75-12.61,17.3-1.09,1.36-2.25,2.9-3.24,4.33-.17,.28-.25,.69-.2,1.02,0,.23,.07,.57,.34,.59,.55-.28,.96-.93,1.45-1.33,.81-.78,1.65-1.55,2.49-2.28,3.02-2.6,6.32-4.92,9.72-6.99,10.13-6.09,21.56-10.25,30.39-18.32,4.38-3.9,8.59-8.65,11.34-13.83,1.48-2.26,3.74-9.49,5.78-11.05,.39-.3,.83-.51,1.11-.11,1.65,2.37,.58,9.38,.24,11.82-1.43,8.27-6.54,15.37-12.71,20.86-7.81,7.39-16.91,13.34-26.44,18.27-5.62,2.97-11.58,5.47-16.8,9.13-5.64,4-11.18,8.6-14.91,14.49-6.22,10.52-6,23.66-2.6,35.17,.24,.82,1.38,.87,1.69,.07,3.62-9.44,9.29-18.19,17.05-24.72,5.28-4.47,11.42-7.87,17.35-11.38,10.92-6.27,21.25-14.19,28.71-24.44,1.32-2.02,2.37-4.31,3.26-6.55,.27-.74,.73-1.85,.97-2.61v-.03c.51-1.25,1.95-1.15,2.23-.01,1.01,4.2-.61,10.88-1.65,14.65-5,16.32-23.92,26.75-37.61,35.2-3.18,2.03-6.33,4.24-9,6.92-5.56,5.83-9.62,13.22-11.24,21.13-.94,4.41-1.09,9.49,1.46,13.4,1.22,1.53,3.92-.32,5.06-1.33l.13-.15c6.79-9.18,12.25-19.43,20.25-27.69,3.55-3.89,7.84-6.95,12.11-9.98,5.81-4.17,11.7-8.26,17.5-12.45,4.35-3.2,8.82-6.32,12.89-9.87,3.85-3.4,7.33-7.22,10.44-11.3,5.29-6.88,8.55-12.46,9.35-21.33,.92-9.57,.31-19.44-3.08-28.5-.71-1.93-1.61-3.94-2.56-5.76-.46-.96-1.14-1.95-1.62-2.97-.28-.61,.17-1.29,.84-1.28,.28,0,.55,.02,.82,.06,.13,.02,.25,.04,.37,.08,1.33,.4,2.63,.99,3.85,1.64,7.71,3.99,11.54,14.58,12.35,22.79,1.21,13.61-3.79,27.34-11.9,38.15l-.05,.06c-3.67,4.33-7.96,8.13-12.09,12.01-6.72,6.16-13.7,12.04-20.7,17.87-4.17,3.49-8.32,7.05-12.43,10.6-3.41,2.93-6.89,5.83-9.88,9.2,0,.02,0,.05,0,.07,.05,.04,.12,.11,.19,.08,6.22-5.51,13.33-9.98,20.83-13.53,8.52-3.99,17.65-6.78,25.95-11.25,9.39-5.01,16.92-13.63,20.99-23.44,1.86-4.59,3.65-9.33,3.86-14.32,.11-.92,.08-1.74,.17-2.67,.04-.36,.86-2.76,3.02,.14,1.24,1.67,3.28,4.8,3.85,11.76,.41,4.99-1.39,9.84-3.51,14.26-8.97,18.38-30,25.71-47.66,33.18-9.21,3.98-19.01,8.07-26.45,14.99-2.22,2.14-4.32,4.76-5.92,7.38-1.43,2.37-2.63,5.08-4.16,7.4-.68,1.13-1.61,3.74-2.85,4.23-16.49,6.5-26.84,13.89-26.84,13.89-.92,.58-1.63,1.29-2.09,1.17-.41-.11-.81-.37-.9-.99-.06-.39-.15-2.11-.14-2.59-.19-7.55-3.14-13.14-8.69-18.2-6.59-6.04-14.87-9.87-22.91-13.57-3.28-1.58-6.79-2.36-9.85-3.65-2.76-1.16-6.08-2.4-8.83-3.55l-.05-.02c-5.11-2.49-10.39-4.94-15.34-7.74-4.87-3.05-9.47-5.48-13.38-10.59-2.48-3.03-5.07-7.41-6.97-10.98,0-.02,.02,0,.01-.01-2.95-6.57-3.55-10.25-4.2-15.29-1.22-8.14-1.68-21.57,2.55-31.39,.93-2.17,2.72-4.79,3.01-5.19,.38-.51,1.99-.48,1.86,.37-1.62,10.51-.07,18.71,.49,24.56,.6,6.25,1.8,12.68,3.71,18.68,4.65,13.96,15.21,26.05,28.61,32.22,3.48,1.67,7.37,2.84,11.05,3.97,1.2,.21,3.32,1.24,4.53,1.05,.01,0,.13-.03,.08-.02h.04c-12.87-9.13-25.05-20.95-31.26-35.16-7.86-17.77-8.99-36.82-3.03-55.63,2.77-8.81,8.69-19.85,14.44-27.08,3.06-3.69,9.77-8.89,14.18-10.88,8.6-3.87,2.85,2.78,2.11,3.7-3.8,4.71-7.58,10.31-10.75,15.67-4.93,7.68-8.93,16.5-11.9,25.21-2.76,8.12-2.8,15.95-1.64,24.19,.51,3.63,2.63,3.68,4.41,1.76,1.39-1.32,3.03-2.98,4.35-4.37,8.39-8.89,15.48-19.05,21.74-29.52,1.46-2.53,3.12-5.12,4.36-7.77,1.47-3.32,2.53-6.89,3.68-10.37,.29-.87,1.53-.78,1.72,.11,2.24,10.33-1.03,20.32-7.21,28.92-4.02,6.21-8.49,12.35-13.97,17.36-2.7,2.63-4.56,4.3-7.68,6.43h-.01c-.08,.07-2.51,2-4.76,3.93-1.85,1.59-3.18,4.26-2.09,7.31,2.46,6.89,7.43,17.72,18.89,31.39,5.8,6.92,13.59,11.48,21.41,15.78,3.67,2.11,6.29,2.96,9.42,5.83,2.02,1.84,2.84,3.26,3.62,3.18Z"/><path class="l" d="M134.64,239.8c-.33-.19-.12-1.72,.06-2.92,.13-.85,.33-1.7,.69-2.47,1.79-3.79,5.98-5.94,9.54-7.86,5.17-2.51,10.18-4.67,15.4-7.14,.33-.15,.65-.33,.97-.5,4.07-2.18,2.81,1.04,1.6,3.93-1.01,1.99-2.51,4.07-4.42,5.19-6.31,3.71-12.55,6-18.66,9.17-.59,.35-2.07,1.4-2.64,1.78-1.06,.7-1.98,1.18-2.54,.82Z"/><path class="l" d="M135.11,250.75c-.73-.93,.08-2.58,.22-3.65,1.24-4.43,5.76-6.7,9.54-8.69,4.91-2.34,10.03-4.5,14.96-6.78,4.37-2.48,2.86,.55,1.92,3.45-.72,2.22-2.14,4.04-3.79,5.3-5.24,3.88-12.21,5.06-17.96,7.99-.56,.33-2.01,1.22-2.49,1.65-.57,.6-1.6,1.27-2.39,.75Z"/><path class="l" d="M115.92,262.9c6.91,.15,14.4-2.63,19.13-7.18,4.84-5.06,11.89-6.58,18.37-8.45,3.18-.92,6.1-2.77,8.69-4.8,2.91-.99-.53,6.16-1.15,6.96-1.2,1.96-2.77,3.72-4.64,5.07-2.36,1.81-5.22,2.6-8.02,3.43-2.76,.92-5.41,2.19-7.93,3.65-2.65,1.48-5.05,3.42-7.85,4.63-2.82,1.21-6.06,1.58-9.09,1.06-2.03-.4-3.92-1.28-5.74-2.23-.64-.41-1.55-.59-1.91-1.31-.15-.25-.21-.73,.15-.82Z"/><path class="l" d="M143.8,263.48c4.2-1.39,8.39-3.15,12.37-5.13,3.18-1.47,6.71-3.01,10.25-1.99,3.37,.78,5.54,3.68,8.44,5.32,1.39,.83,2.9,1.53,4.44,2.05,1.15,.44,2.49,.54,3.56,1.18,.28,.21,1.08,.35,.51,.67-.57,.61-1.38,.75-2.14,1.01-1.11,.37-2.19,.72-3.32,1.05-8,2.66-8.82-3.08-15.45-2.56-4.92,.62-9.36,3.55-14.51,1.86-1.18-.39-4.96-1.92-4.15-3.46Z"/></g><g id="g"><g><path class="k" d="M94.8,103.97c-1,3.9,9.19-20.23,2.58-25.08-1.93-1.42-8.34-1.34-7.52,.04,2.82,4.76,6.01,20.84,4.94,25.04Z"/><path class="k" d="M179.64,191.64c-1.32-1.13,4.78,7.57,10.55,5.6,1.69-.58,5.02-3.35,3.93-3.25-3.74,.37-13.06-1.14-14.48-2.35Z"/><path class="k" d="M99.16,192.01c2.74,.28-14.9-3.74-16.95,.37-.6,1.2,.56,4.84,1.33,4.27,2.64-1.95,12.68-4.95,15.63-4.65Z"/><path class="k" d="M95.99,171.75c-1.02,3.12,9.56-14.47,2.49-21.78-2.07-2.14-8.87-4.85-7.98-3.23,3.04,5.57,6.6,21.65,5.5,25.01Z"/><path class="k" d="M90.64,121.54c-2.75-.71,13.04,7.41,18.91,.91,1.72-1.9,3.65-7.91,2.31-7.06-4.62,2.94-18.26,6.91-21.22,6.15Z"/><path class="k" d="M246.15,153.44c-1.49-1.27,8.37,2.31,8.95,12.3,.17,2.92-.89,9.74-1.23,8.03-1.16-5.88-6.12-18.97-7.72-20.33Z"/><path class="k" d="M211.38,164.95c-.93,2.56,.09-13.6,10.52-16.2,3.05-.76,10.57-.23,8.86,.59-5.91,2.82-18.38,12.85-19.38,15.61Z"/><path class="k" d="M175.54,141.21c-.62,4.23-1.78-23.04,8.85-26.15,3.11-.91,11.12,.92,9.42,2.1-5.84,4.06-17.61,19.51-18.27,24.06Z"/><path class="k" d="M147.8,159.52c.15,2.3-3.6-11.85,1.8-14.83,1.58-.87,6.12-.92,5.33-.09-2.69,2.86-7.29,12.45-7.13,14.91Z"/><path class="k" d="M42.76,140.35c2.57-1.03-14.92,2.97-14.98,8.95-.02,1.75,2.59,5.55,3.03,4.48,1.52-3.68,9.19-12.33,11.95-13.44Z"/><path class="k" d="M66.99,177.74c2.19,.24-11.18-3.95-14.28,1.12-.91,1.48-1.16,5.84-.33,5.13,2.86-2.47,12.25-6.5,14.61-6.24Z"/><path class="k" d="M122.54,170.83c1.35,1.46-3.41-8.48-11.09-7.55-2.25,.27-7.2,2.45-5.84,2.54,4.69,.32,15.57,3.54,16.93,5.01Z"/><path class="k" d="M161.02,185.24c1.32-.76-5.67,5.72-9.64,3.22-1.16-.73-3.02-3.56-2.2-3.31,2.81,.85,10.42,.91,11.84,.09Z"/><path class="k" d="M127.5,133.32c-.11,4.18,6.22-21.26-4.78-27.28-3.21-1.76-12.27-2.34-10.64-.74,5.6,5.52,15.54,23.52,15.42,28.01Z"/><path class="k" d="M173.79,156.61c-2.81-.34,13.14,6.04,19.44-1.95,1.84-2.34,4.06-9.19,2.65-8.05-4.87,3.92-19.07,10.37-22.09,10.01Z"/></g><g><path class="j" d="M207.21,177.46c-2.15-.93,7.69,7.95,17.21,2.97,2.78-1.45,8.31-6.46,6.52-5.87-6.15,2.02-21.41,3.9-23.73,2.9Z"/><path class="j" d="M116.19,186.23c1.63,1.71-10.46-7.89-8.55-11.99,.56-1.2,3.8-2.76,3.79-1.86-.04,3.1,3.01,12.01,4.76,13.85Z"/><path class="j" d="M82.45,128.49c-2.95-.74,16.03-.33,18.28,8.86,.66,2.69-.56,9.39-1.39,7.89-2.87-5.16-13.72-15.95-16.89-16.75Z"/><path class="j" d="M80.32,122.14c.77,2.91-8.18-13.25-.88-20.5,2.13-2.12,8.86-5.01,7.9-3.44-3.31,5.42-7.84,20.81-7.01,23.94Z"/><path class="j" d="M121.06,154.59c2.52,2.02-15.68-7.63-13.64-15.79,.6-2.38,4.85-6.93,4.97-5.37,.41,5.37,5.97,18.98,8.67,21.16Z"/><path class="j" d="M161.29,184.87c-.07,2.54-2.28-13.72,2.98-15.76,1.54-.6,5.75,.36,4.95,1.09-2.75,2.52-7.86,11.95-7.93,14.67Z"/><path class="j" d="M197.71,133.98c-2.95,3.73,11.93-23.17,22.21-20.32,3.01,.83,8.33,6.99,6.29,7.2-7,.7-25.33,9.11-28.5,13.13Z"/><path class="j" d="M52.47,165.28c2.63,1.69-12.71-11.68-17.84-8.02-1.5,1.07-2.96,5.79-1.74,5.53,4.17-.91,16.75,.67,19.58,2.49Z"/><path class="j" d="M246.29,152.89c-3.9,1.51,22-2.43,23.33-14.9,.39-3.64-2.55-12.23-3.41-10.11-2.94,7.29-15.73,23.39-19.92,25.01Z"/><path class="j" d="M51.82,134.49c-1.55,2.71,11.02-13.21,7.05-18.24-1.16-1.47-5.99-2.77-5.66-1.56,1.15,4.16,.27,16.89-1.39,19.8Z"/><path class="j" d="M42.74,139.8c1.9,3.9-6.35-23.02-15.64-22.44-2.72,.17-8.31,4.68-6.6,5.25,5.89,1.96,20.2,12.99,22.24,17.19Z"/><path class="j" d="M173.32,142.71c1.66,2.27-5.79-13.95-13.39-12.55-2.22,.41-6.7,3.9-5.28,4.07,4.88,.59,16.88,6.03,18.67,8.48Z"/><path class="j" d="M164.08,111.67c-1.56,2.34,11.08-10.27,7.12-16.91-1.16-1.94-5.98-4.93-5.65-3.54,1.13,4.78,.2,17.93-1.47,20.45Z"/><path class="j" d="M66.91,168.04c-.58,2.09,5.21-10.77,1.58-13.56-1.06-.82-4.6-.93-4.16-.16,1.53,2.65,3.2,11.47,2.58,13.72Z"/><path class="j" d="M128.47,161.23c-1.69,.34,8.63-3.85,11.01-.19,.7,1.07,.89,4.4,.25,3.91-2.21-1.69-9.45-4.09-11.27-3.72Z"/></g></g><g id="h"><g><path class="m" d="M163.22,3.26c-.25-.48,6.48-1.47,15.93-.26,6.11,.78,12.86,1.65,18.28,5.48,.74,.52,5.64,3.51,5.5,7.57-.11,3.27-4.39,5.31-9.14,4.51-5.8-.98-9.07-4.5-10.79-6.34-3.25-3.46-5.41-5.16-8.43-6.74-5.8-3.05-11.1-3.7-11.36-4.22Z"/><path class="m" d="M146.89,10.07c-.01-.68,8.04-.18,17.93,3.83,6.39,2.59,13.46,5.45,17.42,11.75,.54,.86,4.38,5.94,2.02,11.08-1.9,4.14-7.8,5.61-12.66,3.36-5.94-2.76-7.67-8.1-8.59-10.89-1.74-5.26-3.23-7.99-5.73-10.79-4.82-5.4-10.37-7.61-10.38-8.34Z"/><path class="m" d="M146.81,2.05c.21-.42-5.18-2.09-12.8-2.05-4.92,.03-10.37,.06-14.8,2.99-.6,.4-4.6,2.6-4.57,6.37,.02,3.04,3.43,5.4,7.25,5.2,4.68-.25,7.38-3.13,8.8-4.63,2.68-2.83,4.45-4.15,6.91-5.27,4.72-2.16,8.99-2.16,9.21-2.61Z"/></g><g><path class="i" d="M108.39,8.65c.07-.56-6.73-.03-15.37,3.4-5.58,2.21-11.76,4.66-15.6,9.86-.52,.71-4.17,4.92-2.62,9.08,1.25,3.36,6.07,4.47,10.34,2.55,5.22-2.35,7.11-6.73,8.12-9.03,1.9-4.32,3.38-6.57,5.71-8.9,4.49-4.48,9.34-6.37,9.41-6.97Z"/><path class="i" d="M192.12,30.71c-.02-.56,6.64,.57,14.85,4.72,5.3,2.68,11.17,5.65,14.47,11.13,.45,.75,3.66,5.23,1.74,9.2-1.55,3.2-6.41,3.87-10.44,1.6-4.93-2.78-6.39-7.28-7.17-9.64-1.47-4.44-2.72-6.79-4.8-9.3-4.01-4.83-8.62-7.13-8.64-7.72Z"/><path class="i" d="M213.06,25.58c.01-.38,4.43,.18,9.74,2.73,3.43,1.65,7.23,3.47,9.2,7.07,.27,.49,2.21,3.42,.74,6.17-1.18,2.21-4.48,2.82-7.08,1.41-3.18-1.73-3.95-4.72-4.37-6.29-.78-2.95-1.51-4.51-2.8-6.14-2.47-3.14-5.46-4.55-5.44-4.95Z"/><path class="i" d="M146.09,17.79c-.2-.39-4.88,1.2-9.61,5.11-3.06,2.52-6.44,5.31-6.92,9.56-.07,.58-.84,4.11,2.12,6.67,2.39,2.06,6.36,1.95,8.6-.14,2.74-2.55,2.17-5.88,1.88-7.63-.54-3.29-.46-5.1,.2-7.11,1.27-3.87,3.93-6.04,3.73-6.46Z"/><path class="i" d="M123.76,24.81c.11-.62-7.65-.18-17.69,3.46-6.49,2.36-13.67,4.96-18.38,10.72-.64,.78-5.07,5.43-3.58,10.14,1.2,3.8,6.61,5.16,11.59,3.1,6.09-2.52,8.53-7.4,9.82-9.95,2.44-4.81,4.27-7.31,7.08-9.87,5.4-4.94,11.03-6.95,11.16-7.61Z"/></g><g><path class="o" d="M75.6,53.26c-.12-.59-6.79,2.7-14.34,9.67-4.88,4.5-10.27,9.49-12.39,16.32-.29,.93-2.54,6.68,.43,10.27,2.39,2.89,7.63,2.07,11.28-1.61,4.47-4.5,4.89-9.71,5.13-12.44,.45-5.15,1.19-8.03,2.75-11.34,3.01-6.37,7.26-10.25,7.13-10.88Z"/><path class="o" d="M128.82,47.24c.48-.54,4.98,7.27,8.06,19.48,1.99,7.89,4.2,16.62,2.05,25.12-.29,1.16-1.63,8.62-6.76,10.41-4.13,1.44-8.75-2.86-10.06-9.08-1.6-7.61,1.2-13.31,2.66-16.32,2.74-5.66,3.8-9.14,4.31-13.6,.98-8.6-.78-15.43-.26-16Z"/><path class="o" d="M165.41,45.63c.33-.57,6.95,3.28,13.41,10.83,4.17,4.88,8.79,10.28,9.05,17.2,.04,.94,.8,6.8-3.76,10.07-3.67,2.63-9.43,1.34-12.46-2.62-3.71-4.83-2.54-10-1.94-12.72,1.12-5.11,1.19-8.01,.45-11.41-1.44-6.54-5.08-10.75-4.74-11.36Z"/><path class="o" d="M211.4,68.62c.42-.4,5.06,4.54,8.62,12.56,2.3,5.18,4.84,10.92,3.29,16.84-.21,.81-1.06,5.96-5.76,7.56-3.79,1.29-8.35-1.26-9.91-5.37-1.91-5.03,.4-9.1,1.59-11.25,2.25-4.04,3.06-6.47,3.29-9.53,.45-5.9-1.57-10.38-1.12-10.81Z"/><path class="o" d="M263.86,86.19c.54-.24,3.94,5.48,5.41,13.64,.95,5.27,2,11.1-1.17,15.93-.43,.66-2.68,5-7.91,5.09-4.21,.07-8.18-3.5-8.67-7.6-.6-5.02,2.86-7.99,4.65-9.56,3.39-2.95,4.86-4.9,5.93-7.55,2.05-5.12,1.19-9.69,1.77-9.94Z"/><path class="o" d="M36.6,68.53c-.47-.42-5.94,6.36-9.28,15.57-2.15,5.95-4.54,12.54-2.57,19.07,.27,.89,1.45,6.61,6.53,8.12,4.09,1.21,8.8-1.93,10.23-6.63,1.75-5.75-.92-10.17-2.31-12.5-2.62-4.39-3.14-7.29-3.55-10.7-.8-6.58,1.45-12.47,.95-12.92Z"/></g><g><path class="n" d="M117.6,46.14c-.13-.4-4.57,2.08-9.31,7.09-3.06,3.23-6.45,6.81-7.36,11.53-.12,.64-1.23,4.62,1.18,6.95,1.94,1.88,5.57,1.12,7.84-1.51,2.77-3.21,2.63-6.76,2.56-8.63-.12-3.51,.15-5.49,.97-7.79,1.58-4.43,4.25-7.22,4.11-7.64Z"/><path class="n" d="M231.4,55.32c.15-.6,7.12,1.23,14.9,5.27,5.02,2.61,10.59,5.5,12.6,11.27,.27,.79,2.48,5.47-.8,9.9-2.64,3.57-7.72,3.86-11.47,1.62-4.59-2.74-4.87-7.55-5.03-10.06-.31-4.74-1.44-6.52-2.99-9.12-2.98-5.02-7.36-8.24-7.21-8.88Z"/><path class="n" d="M187.94,46.22c.15-.38,4.59,1.22,9.27,5.08,3.02,2.49,6.37,5.25,7.17,9.4,.11,.57,1.12,4.02-1.39,6.49-2.02,1.99-5.69,1.84-7.93-.22-2.73-2.51-2.49-5.76-2.38-7.47,.22-3.21,0-4.97-.78-6.94-1.49-3.79-4.13-5.94-3.97-6.34Z"/><path class="n" d="M67.06,39.72c.01-.42-5.02,0-11.23,2.64-4.01,1.7-8.45,3.58-10.98,7.54-.34,.54-2.79,3.75-1.36,6.9,1.15,2.54,4.82,3.37,7.87,1.9,3.74-1.8,4.86-5.13,5.46-6.88,1.13-3.29,2.09-5,3.67-6.77,3.05-3.42,6.54-4.87,6.56-5.32Z"/></g></g></g></svg>