<?xml version="1.0" encoding="UTF-8"?><svg xmlns="http://www.w3.org/2000/svg" viewBox="0 0 400 400"><defs><style>.i{fill:#ed8947;}.j{fill:#4f9236;}.k{fill:#7fb06c;}.l{fill:#804b40;}.m{fill:#e54d56;}.n{fill:#eec31b;}.o{fill:#dd85b1;}</style></defs><g id="a"/><g id="b"><g id="c"><path class="o" d="M139.81,231.13v-1.83h-12.67v1.72c0,.21-.17,.37-.37,.37h-4.38c-.2,0-.37-.17-.37-.37v-13.77c-1.88,1.14-3.91,2.25-6.3,3.2-.06,.03-.14,0-.17-.06l-.49-.9c-.03-.06-.01-.14,.05-.18,3.81-2.31,7.05-5.05,9.23-7.83h-8.86c-.2,0-.35-.16-.35-.36v-.73c0-.2,.16-.36,.35-.36h9.92c.93-1.36,1.71-2.72,2.31-4.17h-7.72c-.2,0-.35-.16-.35-.36v-.73c0-.2,.16-.36,.35-.36h8.33c.45-1.24,.85-2.52,1.14-3.85h-11.01c-.2,0-.35-.16-.35-.36v-.73c0-.2,.16-.36,.35-.36h11.34c.18-1.09,.33-2.24,.48-3.4,.03-.2,.21-.35,.41-.32l5.05,.63c.21,.03,.36,.23,.32,.44-.17,.87-.41,1.93-.62,2.66h13c.2,0,.35,.16,.35,.36v.73c0,.2-.16,.36-.35,.36h-13.41c-.41,1.32-.89,2.6-1.42,3.85h13.04c.2,0,.35,.16,.35,.36v.73c0,.2-.16,.36-.35,.36h-9.39c1.22,1.64,2.56,3.05,3.94,4.17h10.12c.2,0,.35,.16,.35,.36v.73c0,.2-.16,.36-.35,.36h-8.17c2.51,1.72,5.24,2.82,8.02,3.78,.22,.08,.32,.33,.2,.54l-2.6,4.58c-.1,.18-.33,.24-.51,.14-1.28-.73-2.17-1.38-3.33-2.3v12.81c0,.21-.17,.37-.37,.37h-4.38c-.2,0-.37-.17-.37-.27Zm-10.68-19.65c-1.22,1.4-2.6,2.68-4.22,3.89h16.77c-1.06-1.16-2.03-2.44-2.92-3.89h-9.62Zm10.68,5.33h-12.67v4.72h12.67v-4.72Zm0,6.16h-12.67v4.93h12.67v-4.93Zm-6.9-17.1c-.77,1.44-1.62,2.85-2.6,4.17h7.59c-.69-1.28-1.3-2.68-1.91-4.17h-3.09Z"/><path class="l" d="M198.58,225.47v-1.54h-15.02v1.53c0,.18-.15,.33-.33,.33h-2.71c-.18,0-.33-.15-.33-.33v-10.25c0-.18,.15-.33,.33-.33h2.71c.18,0,.33,.15,.33,.33v7.76h5.74v-10.39h-7.6c-.27,0-.5-.22-.5-.5v-7.62c0-.18,.15-.33,.33-.33h2.71c.18,0,.33,.15,.33,.33v7.14h4.74v-9.79c0-.18,.15-.33,.33-.33h2.77c.18,0,.33,.15,.33,.33v9.79h4.79v-7.14c0-.18,.15-.33,.33-.33h2.68c.18,0,.33,.15,.33,.33v7.79c0,.18-.15,.33-.33,.33h-7.8v10.39h5.86v-7.76c0-.18,.15-.33,.33-.33h2.68c.18,0,.33,.15,.33,.33v10.28c0,.18-.15,.33-.33,.33l-2.68-.02c-.18,0-.32-.15-.32-.33Z"/><path class="l" d="M313.42,223.12c-.22,.02-.43-.14-.45-.36-.22-1.95-.33-4.08-.33-6.28,0-3.5,.28-7.17,.78-10.59,.03-.22,.24-.37,.46-.35l2.51,.27c.24,.03,.4,.24,.36,.48-.56,2.96-1.13,5.86-1.13,9.05,0,2.31,.44,4.98,.75,7.09,.03,.23-.13,.44-.37,.46l-2.59,.24Zm17.06-1.13c0,.21-.15,.39-.36,.41-1.44,.17-2.99,.27-4.55,.27-.72,0-1.41-.02-2.13-.07-3.72-.22-5.33-1.62-5.33-3.29,0-1.21,.65-2.34,2.09-3.55l.72,.45c-.77,.85-.97,1.42-.97,2.05,0,1.02,1.07,1.69,3.6,1.84,.32,.02,.65,.02,.97,.02,1.83,0,3.84-.24,5.5-.54,.25-.05,.48,.15,.48,.4v1.99Zm-.77-12.81c.01,.26-.21,.46-.47,.42-1.78-.24-3.47-.37-5.09-.37s-3.25,.12-4.79,.36l-.17-.94c3.03-1.02,6.37-1.6,9.96-1.97,.24-.02,.45,.16,.46,.39l.1,2.1Z"/><path class="l" d="M374.98,224.1c-.25,.23-.64,.18-.83-.1-2-2.96-4.57-6.07-7.62-8.46-.91-.71-1.44-1.43-1.44-2.22s.51-1.63,1.65-2.63c2.8-2.42,4.93-4.86,6.78-7.71,.17-.26,.52-.33,.78-.16l2.56,1.76c.29,.2,.32,.62,.06,.85-2.48,2.17-5.43,4.34-8.81,6.41-.72,.43-1.07,.92-1.07,1.38,0,.43,.32,.84,.99,1.25,2.8,1.69,6.49,4.12,9.5,6.48,.26,.21,.27,.59,.02,.82l-2.57,2.33Z"/><g><path class="l" d="M163.68,209.77l4.56-.33c1.61,0,3.31,.12,5.09,.37,.25,.03,.48-.17,.47-.42l-.1-2.1c-.01-.24-.22-.42-.46-.39-3.51,.36-6.8,.93-9.78,1.91-.1,.04-.16,.17-.13,.3h0l.09,.49c.03,.12,.15,.2,.27,.18Z"/><path class="l" d="M160.48,206.01l-2.51-.27c-.22-.02-.42,.13-.46,.35-.51,3.42-.78,7.1-.78,10.59,0,2.2,.11,4.33,.33,6.28,.02,.22,.23,.38,.45,.36l2.59-.24c.23-.02,.4-.23,.37-.46-.31-2.11-.75-4.77-.75-7.09,0-3.18,.56-6.09,1.13-9.05,.04-.24-.12-.45-.36-.48Z"/><path class="l" d="M174.08,219.79c-1.66,.3-3.67,.54-5.5,.54-.32,0-.64,0-.97-.02-2.53-.14-3.6-.82-3.6-1.84,0-.59,.18-1.14,.84-1.91,.04-.08,.05-.18-.03-.24l-.41-.26c-.09-.06-.2-.05-.28,.01-1.35,1.17-1.96,2.26-1.96,3.44,0,1.67,1.61,3.07,5.33,3.29,.72,.05,1.41,.07,2.13,.07,1.56,0,3.11-.1,4.55-.27,.21-.02,.36-.2,.36-.41v-1.99c0-.26-.23-.45-.48-.4Z"/></g><g><path class="l" d="M361.73,222.26c-3.06-1.32-5.41-3.55-6.85-6.9h6.02c.17,0,.3-.14,.31-.3v-.41c-.01-.16-.14-.29-.3-.3h-6.23c.12-1.04,.18-1.84,.18-3.05v-2.68h5.04c.17,0,.31-.14,.31-.31v-.44c0-.13-.11-.25-.26-.25h-5.47c1.77-1.13,3.61-2.69,5.22-4.52,.17-.19,.1-.49-.13-.59l-3.39-1.58c-.21-.1-.46,.02-.52,.24-.57,2.21-1.5,4.53-2.67,6.45h-3.25l2.91-2.07c.19-.14,.22-.41,.05-.58-1.51-1.48-3.39-2.83-5.06-3.77-.1-.02-.18-.05-.28,.04l-.4,.37c-.09,.13-.1,.3-.01,.43,1.01,1.58,1.82,3.34,2.41,5.58h-3.12c-.17,0-.3,.14-.31,.3v.41c.01,.16,.14,.29,.31,.3h4.83v2.71c0,1.21-.03,2.02-.15,3.02h-5.29c-.16,.01-.29,.14-.3,.3v.41c.01,.17,.15,.3,.32,.3h5.11c-.84,5.75-4.08,8.3-7.84,10.18-.12,.06-.21,.21-.16,.33l.24,.48c.06,.12,.21,.18,.34,.13,5.27-1.89,9.54-4.27,10.94-10.32,.6,3.76,2.05,8.15,5.16,10.17,.18,.12,.43,.05,.53-.14l1.93-3.41c.11-.19,.02-.43-.18-.52Z"/><path class="l" d="M344.83,219.69v-15.3c0-.21-.17-.38-.38-.38h-7.67c-.21,0-.38,.17-.38,.38v17.17c0,.21,.17,.38,.38,.38h2.35c.21,0,.38-.17,.38-.38v-1.5h4.94c.21,0,.38-.17,.38-.38Zm-3.1-.66h-2.22v-13.97h2.22v13.97Z"/></g><g><path class="m" d="M286.81,214.9c-1.56-1.67-3.19-3.2-5-4.6v-1.65h4.75c.09,0,.17-.08,.17-.17v-1.08c0-.09-.08-.17-.17-.17h-4.75v-6.52c1.33-.28,2.63-.57,3.83-.89,.37-.1,.48-.58,.19-.83l-3.51-3.11c-.18-.16-.43-.16-.62-.02-2.43,1.93-5.38,3.56-9.06,5.11-.12,.06-.18,.2-.15,.33l.14,.48h0c.02,.14,.14,.24,.28,.25,1.47-.12,3.01-.31,4.56-.53v5.74h-5.27c-.09,0-.17,.08-.17,.17v1.08c0,.09,.08,.17,.17,.17h4.59c-1.07,4.97-3.01,9.28-5.39,13.59-.05,.1-.03,.22,.06,.28l.68,.51c.1,.07,.23,.05,.31-.04,2-2.47,3.84-5.17,5.03-8.05v15.47c0,.27,.22,.49,.49,.49h3.38c.27,0,.49-.22,.49-.49v-18.93c.76,1.72,1.35,3.72,1.84,6.11,.08,.38,.54,.53,.81,.26l2.32-2.27c.19-.18,.2-.49,.02-.68Z"/><path class="m" d="M307.48,224.88c-4.37-2.81-6.34-6.72-7.48-11.04,3.2-2.63,5.41-5.23,7.25-8.8,.13-.25,.01-.57-.25-.68l-4.26-1.73c-.29-.12-.61,.07-.65,.38-.47,3.17-1.32,6.3-2.46,9.3-.52-2.48-.85-5.03-1.25-7.55v-8.24c0-.27-.22-.49-.49-.49h-3.71c-.27,0-.49,.22-.49,.49v10.84c0,7.53-2.69,16.5-8.6,22.11h0c-.18,.12-.23,.34-.17,.53l.38,.61c.12,.11,.29,.15,.44,.1,9-5.07,11.86-12.57,12.46-19.69,.39,7.81,1.42,15.39,6.07,19.5,.23,.21,.6,.13,.75-.14l2.61-4.85c.12-.22,.04-.5-.17-.63Z"/><path class="m" d="M286.34,212.56l3.73,1.99c.29,.15,.65-.02,.71-.34,.66-3.47,.88-6.59,.88-9.92v-1.12c0-.2-.13-.38-.31-.45,0,0-.9-.47-1.02-.2-.31,.76-1.9,6.21-4.14,9.34-.17,.24-.1,.57,.16,.71Z"/></g><path class="l" d="M262.64,222.89c-1.36-1.33-3.48-2.51-5.97-3.21-.12-.04-.24-.02-.32,.08l-.32,.3c-.11,.13-.08,.21,0,.3,1.6,1.14,3.21,3.22,4.06,4.8,.12,.22,.42,.28,.61,.11l1.89-1.79c.18-.15,.21-.43,.04-.6Z"/><g><path class="l" d="M244.54,209.11c-.27,0-.55,0-.85,.03,0,0-3.78,.13-9.72,1.79-.38,.11,.31,.96,.31,.96,.15,.19,.38,.35,.58,.24,.96-.52,5.75-1.72,8.4-1.63,1.44,.05,3.22,.57,3.83,1.91,.71,1.57,.59,4.19-1.36,6.51-2.2,2.92-8.15,4.8-8.53,4.84-.38,.04,.16,.93,.6,.87,1.32-.17,7.72-1.64,10.47-4.03,1.69-1.28,2.54-3.65,2.54-5.65,0-2.92-1.83-5.85-6.27-5.85Z"/><path class="l" d="M237.09,204.16c2.18,1.42,5.36,2.87,8.59,3.62,.29,.07,.58-.13,.64-.42l.53-2.7c.04-.17-.08-.34-.25-.37-.4-.05-.82-.04-1.21-.04-2.97,0-5.77-.37-7.94-.97-.14-.03-.28,.04-.33,.18l-.15,.37c-.05,.13,0,.27,.11,.34Z"/></g><g><path class="l" d="M229.65,215.19h-22.86c-.14,.03-.25,.14-.28,.28v.43c.02,.14,.12,.25,.27,.25h7.42c-.54,1.8-1.67,3.93-3.06,5.73-1.32,0-2.29-.02-3.59-.05-.28,0-.5,.25-.44,.53l.57,2.79c.05,.23,.26,.38,.49,.35,5.21-.75,10.72-1.96,15.61-3.18,.77,.9,1.61,1.96,2.34,3.14,.15,.25,.5,.29,.7,.07l2.21-2.45c.18-.2,.14-.52-.09-.67-2.59-1.72-4.85-2.84-7.56-4.06h0c-.06-.04-.15-.02-.2,.04l-.46,.55c-.04,.06-.04,.14,0,.19,.72,.65,1.61,1.49,2.26,2.24-3.26,.25-6.95,.42-10.44,.47,2.35-1.41,4.65-3.71,6.55-5.7h10.54c.1,0,.17-.08,.18-.17v-.62c0-.09-.08-.17-.18-.17Z"/><path class="l" d="M230.48,208.73c-4.15-.78-8.21-2.28-11.49-4.82,.3-.39,.59-.78,.88-1.19,.18-.25,.05-.6-.25-.68l-3.41-.88c-.2-.05-.41,.04-.5,.23-1.94,3.89-4.62,7.48-10.28,10.55l.45,.78c5.87-2.02,9.33-4.18,12.51-8.05,2.93,3.63,6.73,6.36,10.36,7.99,.22,.1,.48,0,.58-.22l1.47-3.08c.12-.26-.03-.56-.32-.62Z"/><rect class="l" x="212.01" y="211.04" width="12.28" height="1.11" rx=".15" ry=".15"/></g></g><g id="d"><path class="l" d="M151.4,184.05v3.68c0,.15-.12,.27-.27,.27h-1.37c-.15,0-.27-.12-.27-.27v-3.68h-5.3v-.57h5.3v-1.83h-3.68c-.15,0-.27-.12-.27-.27v-4.96c0-.15,.12-.27,.27-.27h9.32c.15,0,.27,.12,.27,.27v4.96c0,.15-.12,.27-.27,.27h-3.75v1.83h5.38v.57h-5.38Zm2.12-7.4h-6.06c-.07,0-.14,.06-.14,.14v1.66c0,.07,.06,.14,.14,.14h6.06c.07,0,.14-.06,.14-.14v-1.66c0-.07-.06-.14-.14-.14Zm0,2.43h-6.06c-.07,0-.14,.06-.14,.14v1.78c0,.07,.06,.14,.14,.14h6.06c.07,0,.14-.06,.14-.14v-1.78c0-.07-.06-.14-.14-.14Z"/><path class="l" d="M163.88,187.96c-.1,0-.18-.08-.18-.19v-5.35l-.98,.98c-.17-.76-.42-1.66-.67-2.31v6.68c0,.1-.08,.19-.19,.19h-1.15c-.1,0-.19-.08-.19-.19v-5.24c-.41,.92-.88,1.8-1.41,2.5l-.38-.24c.67-1.47,1.2-3.22,1.41-4.98h-1.33v-.5h1.71v-1.8c-.52,.07-1.02,.14-1.52,.18l-.17-.41c1.34-.54,2.33-1.23,3.02-1.8,.07-.06,.16-.05,.23,0l1.62,1.32c-.49,.15-1.05,.31-1.65,.42v2.08h1.58v.5h-1.58v.69c.53,.39,1.16,.92,1.65,1.47v-1.2h1.34c.1,0,.19,.08,.19,.19v6.83c0,.1-.08,.19-.19,.19h-1.15Zm6.71-11.3c.1,.08,.06,.24-.06,.26-2.23,.43-4.93,.73-7.15,.77l-.17-.43c2.19-.41,4.32-1.07,5.8-1.8,.07-.03,.14-.02,.19,.03l1.39,1.17Zm-5.53,3.86c-.1,.08-.26,.03-.29-.09-.12-.45-.41-1.39-.87-2.15l.32-.28c.74,.43,1.54,1.14,1.87,1.45,.08,.08,.08,.21-.02,.28l-1.02,.8Zm4.26,7.43v-.76h-1.73v.76h-1.3c-.1,0-.19-.08-.19-.19v-6.69c0-.1,.08-.19,.19-.19h4.33c.1,0,.19,.08,.19,.19v6.7c0,.1-.08,.19-.19,.19h-1.29Zm-2.31-7.63c-.12,.07-.26,0-.28-.13-.06-.47-.21-1.44-.56-2.25l.35-.22c.71,.48,1.42,1.29,1.71,1.64,.07,.09,.05,.22-.05,.28l-1.17,.69Zm2.31,1.06h-1.73v2.27h1.73v-2.27Zm0,2.77h-1.73v2.54h1.73v-2.54Zm-1.03-3.71c.39-.89,.61-1.81,.73-2.75,.02-.12,.14-.19,.25-.15l1.18,.49c.21,.09,.26,.22,.2,.31-.48,.8-1.14,1.58-1.97,2.32l-.38-.22Z"/><path class="l" d="M182.96,187.98v-1.22h-7.4v1.22h-1.52c-.09,0-.16-.07-.16-.16v-11.04c0-.09,.07-.16,.16-.16h10.44c.09,0,.16,.07,.16,.16v11.06c0,.09-.07,.16-.16,.16h-1.52Zm-4.69-10.81h-2.56c-.09,0-.16,.07-.16,.16v3.79c0,.09,.07,.16,.16,.16h2.56c.09,0,.16-.07,.16-.16v-3.79c0-.09-.07-.16-.16-.16Zm0,4.62h-2.56c-.09,0-.16,.07-.16,.16v4.09c0,.09,.07,.16,.16,.16h2.56c.09,0,.16-.07,.16-.16v-4.09c0-.09-.07-.16-.16-.16Zm4.53-4.62h-2.6c-.09,0-.16,.07-.16,.16v3.79c0,.09,.07,.16,.16,.16h2.6c.09,0,.16-.07,.16-.16v-3.79c0-.09-.07-.16-.16-.16Zm0,4.62h-2.6c-.09,0-.16,.07-.16,.16v4.09c0,.09,.07,.16,.16,.16h2.6c.09,0,.16-.07,.16-.16v-4.09c0-.09-.07-.16-.16-.16Z"/><path class="l" d="M198.3,182.43c-.77-.3-1.52-.69-2.08-1.13h-5.76c-1.01,.59-2.1,1.02-3.54,1.37l-.14-.48c2.92-1.06,4.67-2.81,5.08-5.01h-1.45s-.21,.25-.32,.35c.18,.13,.73,.45,1.29,.92l-1.2,1.02c-.07-.78-.27-1.41-.35-1.66-.29,.29-.69,.64-1.01,.91,.18,.16,.61,.56,1.03,1.03,.09,.1,.07,.26-.05,.34l-1.13,.68v-.14c0-.71-.1-1.36-.15-1.65-.39,.29-.77,.56-1.13,.78l-.27-.35c.99-1.02,1.84-2.57,2.2-3.77,.03-.11,.14-.17,.25-.15l1.86,.43c-.18,.27-.32,.46-.56,.74h2.59c-.1-.32-.2-.69-.2-.69l.39-.15c.49,1.4,1.12,2.39,2.13,3.27,.46-.63,.83-1.41,.97-2.14h-2.24v-.49h4.18v.77c-.64,.92-1.59,1.72-2.43,2.2,.81,.53,1.81,.88,2.87,1.04,.14,.02,.23,.17,.17,.3l-.69,1.53c-.05,.11-.17,.16-.28,.12Zm-11.34,4.52c1.04-.79,1.84-1.77,2.47-2.93,.06-.11,.2-.15,.3-.09l1.39,.83c.13,.08,.15,.26,.03,.36-1.15,.99-2.56,1.8-3.95,2.23l-.24-.41Zm7.12-3.55v2.84c0,.99-.14,1.75-1.44,1.75-.5,0-1.2-.11-2.15-.39v-.59c.57,.11,.97,.18,1.23,.18,.56,0,.6-.27,.6-.95v-2.84h-4.94v-.49h11.41v.49h-4.71Zm1.58-2.59c-.87-.87-1.52-1.99-2.01-3.45v.13c-.52,1.45-1.24,2.5-2.41,3.33h4.42Zm2.46,6.35c-.08,.12-.25,.14-.34,.03-.94-1-1.9-1.9-2.94-2.67l.49-.58c.06-.05,.14-.07,.22-.05,1.23,.34,2.19,1.03,3.34,1.54,.13,.06,.18,.21,.11,.32l-.88,1.42Z"/><path class="l" d="M201.89,187.19v-1.04c.87-.88,2.2-2.27,3.17-3.34,1.36-1.48,1.79-2.43,1.79-3.7s-.7-1.97-1.89-1.97c-.92,0-1.78,.95-2.36,1.74-.09,.12-.56-.14-.5-.27,.71-1.58,1.9-2.3,3.47-2.3,2.2,0,3.2,1.25,3.2,2.88s-.89,2.55-2.67,4.14c-.69,.62-1.97,1.77-2.6,2.36h5.57l-.21,1.11c-.04,.22-.23,.39-.46,.39h-6.51Z"/><path class="l" d="M220.21,187.19v-1.04c.87-.88,2.2-2.27,3.17-3.34,1.36-1.48,1.79-2.43,1.79-3.7s-.7-1.97-1.89-1.97c-.92,0-1.78,.95-2.36,1.74-.09,.12-.56-.14-.5-.27,.71-1.58,1.9-2.3,3.47-2.3,2.2,0,3.2,1.25,3.2,2.88s-.89,2.55-2.67,4.14c-.69,.62-1.97,1.77-2.6,2.36h5.57l-.21,1.11c-.04,.22-.23,.39-.46,.39h-6.51Z"/><path class="l" d="M229.11,187.19v-1.04c.87-.88,2.2-2.27,3.17-3.34,1.36-1.48,1.79-2.43,1.79-3.7s-.7-1.97-1.89-1.97c-.92,0-1.78,.95-2.36,1.74-.09,.12-.56-.14-.5-.27,.71-1.58,1.9-2.3,3.47-2.3,2.2,0,3.2,1.25,3.2,2.88s-.89,2.55-2.67,4.14c-.69,.62-1.97,1.77-2.6,2.36h5.57l-.21,1.11c-.04,.22-.23,.39-.46,.39h-6.51Z"/><path class="l" d="M210.84,181.88c0-3.94,1.8-5.57,3.85-5.57s3.85,1.77,3.85,5.71-1.85,5.41-3.85,5.41-3.85-1.61-3.85-5.55Zm5.58,.14c0-2.49-.66-4.99-1.94-4.99s-1.97,2.36-1.97,4.85,.71,4.85,1.97,4.85,1.94-2.22,1.94-4.7Z"/><path class="l" d="M250.86,187.65c-.02,.09-.1,.16-.19,.17-.55,.04-1.25,.06-2.06,.06-.94,0-2.01-.03-3.15-.07-1.48-.06-3.03-.57-3.82-2.08-.38,.48-1.11,1.36-1.79,2.06-.1,.11-.28,.08-.35-.05l-.69-1.3c-.06-.12,0-.27,.13-.31,.67-.22,1.29-.53,1.29-.53v-4.87h-1.16v-.52h2.63c.12,0,.22,.1,.22,.22v4.77c.84,.94,1.85,1.16,3.54,1.16,1.37,0,3.88-.12,5.49-.37,.15-.02,.28,.12,.24,.27l-.33,1.38Zm-10.29-8.84c-.12,.1-.3,.04-.35-.1-.28-.84-.65-1.58-1.02-2.15l.34-.35c.67,.36,1.4,.79,2.11,1.36,.11,.09,.11,.26,0,.35l-1.08,.9Zm6.8,5.7v1.3c0,.12-.1,.22-.22,.22h-1.08c-.12,0-.22-.1-.22-.22v-1.3h-3.54v-.5h3.54v-.95h-2.41c-.12,0-.22-.1-.22-.22v-3.52c0-.12,.1-.22,.22-.22h2.41v-.8h-1.64v-.5h1.64v-.92h1.52v.92h1.54v.5h-1.54v.8h2.47c.12,0,.22,.1,.22,.22v3.52c0,.12-.1,.22-.22,.22h-2.47v.95h3.71v.5h-3.71Zm1.65-6.24c.25-.63,.39-1.17,.41-1.73h-5.51v1.33c0,.12-.1,.22-.22,.22h-1.09c-.12,0-.22-.1-.22-.22v-1.62c0-.12,.1-.22,.22-.22h8.35v.96s-.01,.09-.04,.13c-.37,.53-.8,.77-1.62,1.34l-.28-.2Zm-3.17,1.33h-1.18v1.15h1.18v-1.15Zm0,1.65h-1.18v1.3h1.18v-1.3Zm2.75-1.65h-1.23v1.15h1.23v-1.15Zm0,1.65h-1.23v1.3h1.23v-1.3Z"/><path class="l" d="M262.88,180.51c.17-.5,.34-1.2,.34-1.85v-.07h-8.39v1.87c0,.09-.07,.16-.16,.16h-1.36c-.09,0-.16-.07-.16-.16v-2.23c0-.09,.07-.16,.16-.16h2.37c-.11-.49-.5-1.43-1.01-2.27l.34-.28c1.26,.73,2.31,1.66,2.31,1.66l-1.22,.88h2.46c-.06-.49-.29-1.43-.66-2.42l.36-.24c1.13,.89,2.01,1.89,2.01,1.89l-1.4,.77h2.04c.28-.45,.67-1.47,.87-2.47,.02-.09,.11-.15,.2-.12l1.63,.56c.11,.04,.14,.18,.06,.26-.76,.84-1.44,1.42-2.02,1.76h3.61v.76c-.35,.7-1.2,1.4-2,1.94l-.41-.27Zm-.69,7.48v-.85h-6.19v.85h-1.61c-.09,0-.16-.07-.16-.16v-3.88c0-.09,.07-.16,.16-.16h3.17c.1-.39,.15-.92,.15-1.22h-2.05c-.09,0-.16-.07-.16-.16v-2.55c0-.09,.07-.16,.16-.16h6.78c.09,0,.16,.07,.16,.16v2.55c0,.09-.07,.16-.16,.16h-2.56c-.31,.32-1.06,.91-1.62,1.22h5.53c.09,0,.16,.07,.16,.16v3.89c0,.09-.07,.16-.16,.16h-1.6Zm0-3.69h-6.19v2.32h6.19v-2.32Zm-1.27-4.08h-3.73v1.83h3.73v-1.83Z"/><path class="l" d="M276.95,187.15c-.92-1.36-2.08-2.76-3.51-3.84-1.65,1.78-3.43,3.06-6.17,4l-.31-.51c3.9-1.91,6.05-4.97,7.05-8.83h-5.02v-.61h7.24v.62c-.55,1.93-1.29,3.45-2.38,4.84,1.66,.72,3.1,1.48,4.53,2.46,.06,.04,.08,.13,.03,.19l-1.27,1.69c-.05,.07-.15,.07-.2,0Z"/><path class="l" d="M291.18,179.24c-1.13,4.49-4.71,7.43-10.15,8.2l-.27-.53c2.31-.53,4.18-1.56,5.58-2.91-.73-1-1.61-1.76-2.41-2.35l.31-.46c1.09,.36,2.11,.94,3.16,1.6,.84-1.13,1.41-2.42,1.71-3.81h-3.66c-1.03,1.33-2.49,2.48-4.2,3.28l-.38-.39c1.9-1.26,3.27-3.52,3.88-5.71,.04-.13,.16-.2,.29-.17l1.58,.46c.14,.04,.22,.21,.15,.35-.27,.56-.53,1.04-.9,1.58h5.3v.84Z"/><path class="l" d="M296.01,183.26c-.09,.06-.21,0-.24-.11-.29-1.09-.7-2.01-1.19-2.76l.37-.28c.9,.68,1.49,1.35,2.21,2.23,.07,.08,.05,.21-.04,.26l-1.11,.65Zm-.29,3.72c3.21-1,4.66-2.98,5.08-6.92,.01-.1,.1-.17,.2-.15l1.19,.27c.09,.02,.14,.11,.13,.2-.57,4.11-2.49,6.12-6.3,7l-.3-.4Zm2.33-4.35c-.09,.05-.21,0-.24-.11-.29-1.1-.64-2.03-1.14-2.78l.36-.26c.88,.71,1.5,1.4,2.19,2.27,.07,.08,.04,.21-.05,.26l-1.13,.61Z"/><path class="l" d="M306.56,186.82c4.06-1.3,6.44-4.12,7.08-8.22,.02-.14-.08-.27-.22-.27h-7.43v-.75h9.84v.85c-.7,4.93-3.69,7.84-9.03,8.87l-.24-.48Z"/><path class="l" d="M321.04,187.74v-3.41c-.67,1.01-1.41,1.8-2.32,2.5l-.27-.31c.82-1.17,1.57-2.73,1.94-4.04h-1.37v-.49h2.01v-1.4h-2.25v-.49h1.47c-.18-1.26-.56-2.28-.56-2.28l.34-.24s.89,.85,1.75,1.89l-1.06,.63h1.34c.34-.81,.52-1.74,.6-2.22,.03-.16,.2-.25,.35-.19l1.08,.45c.15,.06,.21,.25,.11,.38-.27,.37-.82,1.06-1.5,1.58h2.2v.49h-2.28v1.4h2.01v.49h-2.01v.39c.72,.37,1.46,.82,2.03,1.3,.1,.09,.11,.24,.03,.35l-.88,1.15c-.31-.76-.75-1.64-1.19-2.28v4.35c0,.14-.11,.25-.25,.25h-1.06c-.14,0-.25-.11-.25-.25Zm-2.04-10.32v-.49h2.01v-1.26c0-.14,.11-.25,.25-.25h1.12c.14,0,.25,.11,.25,.25v1.26h2v.49h-5.64Zm9.41,10.57c-.14,0-.25-.11-.25-.25v-7.5h-1.37c-.03,3.38-.49,6.03-2.7,7.73l-.34-.31c1.17-1.72,1.43-3.7,1.43-7.65v-2.58c0-.11,.07-.21,.18-.24,1.39-.42,2.7-1.04,3.59-1.66,.09-.06,.21-.06,.29,.01l1.45,1.16c-1.34,.41-2.8,.69-3.9,.8v2.25h4.28v.49h-1.37v7.5c0,.14-.11,.25-.25,.25h-1.03Z"/><path class="l" d="M343.64,187.68c-.92-1.43-1.44-3.06-1.47-5.04-.42,2.81-1.54,4.31-3.4,5.36l-.24-.31c.29-.29,.55-.59,.77-.87h-4.32v.84h-1.33c-.12,0-.22-.1-.22-.22v-5.59c-.31,.18-.63,.34-.94,.48l-.22-.35c1.09-.8,1.94-1.72,2.6-2.74h-2.35v-.5h2.64c.31-.53,.55-1.1,.73-1.69h-.87c-.49,.53-1.23,1.16-1.91,1.58l-.34-.27c.66-1.02,1.01-2.17,1.14-2.63,.03-.12,.15-.18,.27-.16l1.72,.4s-.17,.28-.43,.59h3.75v.49h-1.41c-.25,.62-.54,1.17-.89,1.69h2.63v.5h-2.99c-.5,.63-1.09,1.2-1.75,1.72h1.73c.21-.58,.33-1.11,.38-1.4,.02-.13,.15-.21,.27-.17l1.57,.39s-.67,.66-1.58,1.19h2.36v.52h-1.58v1.34h1.62v.46h-1.62v1.26h1.62v.49h-1.62v1.33h1.68c.96-1.56,1.18-3.41,1.19-6.58,0-.12,.1-.23,.22-.23h1.34c0,.39-.01,.77-.03,1.13,.38,2.5,1.11,3.96,2.4,5.38,.06,.07,.08,.17,.03,.26l-.75,1.36c-.08,.15-.3,.16-.39,.02Zm-7.23-6.22h-1.43v1.34h1.43v-1.34Zm0,1.8h-1.43v1.26h1.43v-1.26Zm0,1.75h-1.43v1.33h1.43v-1.33Zm6.52-4.25c.2-.89,.27-1.73,.27-2.64v-.24h-1.92c-.34,.98-1.04,1.92-1.76,2.75l-.29-.21c.5-1.38,.8-2.75,.91-4.67,0-.13,.13-.24,.26-.21l1.23,.21c.13,.02,.21,.15,.18,.27-.09,.44-.22,.86-.36,1.35h3.19v.66c-.24,.98-.64,1.89-1.37,2.92l-.34-.2Z"/></g></g><g id="e"><g><g id="f"><path class="l" d="M58,220.48c.11-.01,.12-.27,.08-.41,.01-.18-.12-.87-.16-1.05-.18-.88-.31-1.11-.42-1.44-1.17-3.51-2.54-7.2-2.11-10.96,.62-5.87,4.47-10.61,7.13-15.68,.96-1.74,1.91-3.53,2.37-5.48,1.21-4.92,.09-10.98-3.1-15.01-.18-.22,.03-.54,.31-.48,1.82,.45,3.43,1.71,4.51,3.22,1.3,1.85,1.86,4.12,2.22,6.33,.52,3.52,.06,7.24-1.54,10.43-1.06,2.16-2.73,3.94-4.23,5.8-.37,.46-.75,.97-1.09,1.45-.06,.09-.08,.23-.07,.34,0,.08,.02,.19,.11,.2,.19-.1,.32-.31,.49-.45,.27-.26,.55-.52,.84-.76,1.01-.87,2.12-1.65,3.26-2.34,3.4-2.04,7.23-3.44,10.19-6.14,1.47-1.31,2.88-2.9,3.8-4.64,.5-.76,1.25-3.18,1.94-3.71,.13-.1,.28-.17,.37-.04,.55,.79,.2,3.15,.08,3.96-.48,2.77-2.19,5.15-4.26,6.99-2.62,2.48-5.67,4.47-8.87,6.13-1.88,1-3.88,1.83-5.63,3.06-1.89,1.34-3.75,2.88-5,4.86-2.09,3.53-2.01,7.93-.87,11.79,.08,.27,.46,.29,.57,.02,1.21-3.16,3.11-6.1,5.72-8.29,1.77-1.5,3.83-2.64,5.82-3.82,3.66-2.1,7.13-4.76,9.63-8.2,.44-.68,.8-1.44,1.09-2.2,.09-.25,.24-.62,.33-.87h0c.17-.43,.65-.4,.74-.01,.34,1.41-.2,3.65-.55,4.91-1.68,5.47-8.02,8.97-12.61,11.8-1.07,.68-2.12,1.42-3.02,2.32-1.86,1.95-3.23,4.43-3.77,7.09-.31,1.48-.37,3.18,.49,4.49,.41,.51,1.32-.11,1.7-.45l.04-.05c2.28-3.08,4.11-6.51,6.79-9.28,1.19-1.3,2.63-2.33,4.06-3.35,1.95-1.4,3.92-2.77,5.87-4.17,1.46-1.07,2.96-2.12,4.32-3.31,1.29-1.14,2.46-2.42,3.5-3.79,1.77-2.31,2.87-4.18,3.13-7.15,.31-3.21,.1-6.52-1.03-9.56-.24-.65-.54-1.32-.86-1.93-.16-.32-.38-.65-.54-1-.09-.2,.06-.43,.28-.43,.09,0,.19,0,.28,.02,.04,0,.08,.01,.12,.03,.45,.13,.88,.33,1.29,.55,2.59,1.34,3.87,4.89,4.14,7.64,.41,4.56-1.27,9.17-3.99,12.79l-.02,.02c-1.23,1.45-2.67,2.73-4.05,4.03-2.25,2.07-4.59,4.04-6.94,5.99-1.4,1.17-2.79,2.36-4.17,3.56-1.14,.98-2.31,1.96-3.31,3.09,0,0,0,.02,0,.02,.02,.01,.04,.04,.06,.03,2.09-1.85,4.47-3.35,6.98-4.54,2.86-1.34,5.92-2.27,8.7-3.77,3.15-1.68,5.67-4.57,7.04-7.86,.62-1.54,1.22-3.13,1.29-4.8,.04-.31,.03-.58,.06-.89,.01-.12,.29-.93,1.01,.05,.42,.56,1.1,1.61,1.29,3.94,.14,1.67-.47,3.3-1.18,4.78-3.01,6.16-10.06,8.62-15.98,11.13-3.09,1.34-6.37,2.71-8.87,5.03-.74,.72-1.45,1.59-1.99,2.48-.48,.79-.88,1.71-1.39,2.48-.23,.38-.54,1.25-.96,1.42-5.53,2.18-9,4.66-9,4.66-.31,.19-.55,.43-.7,.39-.14-.04-.27-.12-.3-.33-.02-.13-.05-.71-.05-.87-.07-2.53-1.05-4.4-2.91-6.1-2.21-2.02-4.99-3.31-7.68-4.55-1.1-.53-2.28-.79-3.3-1.22-.93-.39-2.04-.81-2.96-1.19h-.02c-1.71-.84-3.49-1.66-5.14-2.6-1.63-1.02-3.17-1.84-4.49-3.55-.83-1.02-1.7-2.49-2.34-3.68,0,0,0,0,0,0-.99-2.2-1.19-3.44-1.41-5.13-.41-2.73-.56-7.23,.85-10.53,.31-.73,.91-1.61,1.01-1.74,.13-.17,.67-.16,.62,.12-.54,3.52-.02,6.27,.17,8.24,.2,2.1,.6,4.25,1.24,6.26,1.56,4.68,5.1,8.74,9.59,10.8,1.17,.56,2.47,.95,3.71,1.33,.4,.07,1.11,.42,1.52,.35,0,0,.04,0,.03,0h.01c-4.31-3.06-8.4-7.02-10.48-11.79-2.63-5.96-3.01-12.35-1.02-18.65,.93-2.95,2.92-6.66,4.84-9.08,1.03-1.24,3.28-2.98,4.75-3.65,2.88-1.3,.96,.93,.71,1.24-1.28,1.58-2.54,3.46-3.6,5.26-1.65,2.58-2.99,5.53-3.99,8.45-.92,2.72-.94,5.35-.55,8.11,.17,1.22,.88,1.23,1.48,.59,.46-.44,1.02-1,1.46-1.47,2.81-2.98,5.19-6.39,7.29-9.9,.49-.85,1.05-1.72,1.46-2.61,.49-1.11,.85-2.31,1.23-3.48,.1-.29,.51-.26,.58,.04,.75,3.46-.35,6.81-2.42,9.7-1.35,2.08-2.85,4.14-4.68,5.82-.9,.88-1.53,1.44-2.57,2.16h0s-.84,.67-1.6,1.32c-.62,.53-1.07,1.43-.7,2.45,.82,2.31,2.49,5.94,6.33,10.53,1.94,2.32,4.56,3.85,7.18,5.29,1.23,.71,2.11,.99,3.16,1.95,.68,.62,.95,1.09,1.21,1.07Z"/><path class="l" d="M59.86,235.42c-.11-.06-.04-.58,.02-.98,.04-.29,.11-.57,.23-.83,.6-1.27,2-1.99,3.2-2.63,1.73-.84,3.42-1.57,5.16-2.39,.11-.05,.22-.11,.33-.17,1.37-.73,.94,.35,.54,1.32-.34,.67-.84,1.36-1.48,1.74-2.12,1.24-4.21,2.01-6.26,3.08-.2,.12-.69,.47-.89,.6-.36,.24-.66,.4-.85,.27Z"/><path class="l" d="M60.02,239.09c-.25-.31,.03-.87,.07-1.22,.42-1.49,1.93-2.25,3.2-2.91,1.65-.78,3.36-1.51,5.02-2.27,1.47-.83,.96,.19,.64,1.16-.24,.75-.72,1.35-1.27,1.78-1.76,1.3-4.09,1.7-6.02,2.68-.19,.11-.68,.41-.83,.55-.19,.2-.54,.43-.8,.25Z"/><path class="l" d="M53.58,243.16c2.32,.05,4.83-.88,6.41-2.41,1.62-1.7,3.99-2.21,6.16-2.83,1.07-.31,2.05-.93,2.91-1.61,.98-.33-.18,2.07-.39,2.33-.4,.66-.93,1.25-1.55,1.7-.79,.61-1.75,.87-2.69,1.15-.93,.31-1.81,.73-2.66,1.22-.89,.5-1.69,1.15-2.63,1.55-.95,.41-2.03,.53-3.05,.36-.68-.13-1.32-.43-1.93-.75-.21-.14-.52-.2-.64-.44-.05-.08-.07-.25,.05-.28Z"/><path class="l" d="M62.93,243.36c1.41-.46,2.81-1.06,4.15-1.72,1.07-.49,2.25-1.01,3.44-.67,1.13,.26,1.86,1.23,2.83,1.78,.47,.28,.97,.51,1.49,.69,.39,.15,.83,.18,1.19,.4,.09,.07,.36,.12,.17,.22-.19,.2-.46,.25-.72,.34-.37,.12-.73,.24-1.11,.35-2.68,.89-2.96-1.03-5.18-.86-1.65,.21-3.14,1.19-4.86,.62-.4-.13-1.66-.64-1.39-1.16Z"/></g><g id="g"><g><path class="k" d="M46.5,189.87c-.34,1.31,3.08-6.78,.87-8.41-.65-.48-2.8-.45-2.52,.01,.95,1.59,2.02,6.99,1.66,8.4Z"/><path class="k" d="M74.95,219.27c-.44-.38,1.6,2.54,3.54,1.88,.57-.19,1.68-1.12,1.32-1.09-1.25,.12-4.38-.38-4.86-.79Z"/><path class="k" d="M47.96,219.39c.92,.09-5-1.25-5.68,.13-.2,.4,.19,1.62,.45,1.43,.89-.66,4.25-1.66,5.24-1.56Z"/><path class="k" d="M46.9,212.6c-.34,1.05,3.2-4.85,.83-7.3-.69-.72-2.97-1.63-2.68-1.08,1.02,1.87,2.21,7.26,1.84,8.39Z"/><path class="k" d="M45.1,195.76c-.92-.24,4.37,2.48,6.34,.31,.58-.64,1.23-2.65,.77-2.37-1.55,.98-6.12,2.32-7.12,2.06Z"/><path class="k" d="M97.25,206.46c-.5-.43,2.81,.77,3,4.12,.06,.98-.3,3.27-.41,2.69-.39-1.97-2.05-6.36-2.59-6.82Z"/><path class="k" d="M85.59,210.32c-.31,.86,.03-4.56,3.53-5.43,1.02-.25,3.55-.08,2.97,.2-1.98,.95-6.16,4.31-6.5,5.23Z"/><path class="k" d="M73.57,202.36c-.21,1.42-.6-7.72,2.97-8.77,1.04-.31,3.73,.31,3.16,.7-1.96,1.36-5.9,6.54-6.13,8.07Z"/><path class="k" d="M64.27,208.5c.05,.77-1.21-3.97,.6-4.97,.53-.29,2.05-.31,1.79-.03-.9,.96-2.44,4.17-2.39,5Z"/><path class="k" d="M29.05,202.07c.86-.35-5,1-5.02,3,0,.59,.87,1.86,1.02,1.5,.51-1.23,3.08-4.13,4.01-4.51Z"/><path class="k" d="M37.17,214.61c.73,.08-3.75-1.32-4.79,.38-.3,.5-.39,1.96-.11,1.72,.96-.83,4.11-2.18,4.9-2.09Z"/><path class="k" d="M55.8,212.29c.45,.49-1.14-2.84-3.72-2.53-.75,.09-2.41,.82-1.96,.85,1.57,.11,5.22,1.19,5.68,1.68Z"/><path class="k" d="M68.7,217.12c.44-.26-1.9,1.92-3.23,1.08-.39-.25-1.01-1.19-.74-1.11,.94,.28,3.49,.31,3.97,.03Z"/><path class="k" d="M57.46,199.71c-.04,1.4,2.09-7.13-1.6-9.15-1.08-.59-4.11-.79-3.57-.25,1.88,1.85,5.21,7.89,5.17,9.39Z"/><path class="k" d="M72.99,207.52c-.94-.11,4.41,2.03,6.52-.66,.62-.78,1.36-3.08,.89-2.7-1.63,1.31-6.39,3.48-7.41,3.36Z"/></g><g><path class="j" d="M84.19,214.51c-.72-.31,2.58,2.67,5.77,1,.93-.49,2.79-2.17,2.19-1.97-2.06,.68-7.18,1.31-7.96,.97Z"/><path class="j" d="M53.67,217.46c.55,.57-3.51-2.65-2.87-4.02,.19-.4,1.27-.93,1.27-.62-.01,1.04,1.01,4.03,1.6,4.64Z"/><path class="j" d="M42.36,198.09c-.99-.25,5.38-.11,6.13,2.97,.22,.9-.19,3.15-.47,2.65-.96-1.73-4.6-5.35-5.66-5.62Z"/><path class="j" d="M41.64,195.97c.26,.98-2.74-4.44-.3-6.87,.72-.71,2.97-1.68,2.65-1.15-1.11,1.82-2.63,6.98-2.35,8.03Z"/><path class="j" d="M55.31,206.85c.84,.68-5.26-2.56-4.57-5.29,.2-.8,1.63-2.32,1.67-1.8,.14,1.8,2,6.36,2.91,7.09Z"/><path class="j" d="M68.8,217c-.02,.85-.76-4.6,1-5.29,.52-.2,1.93,.12,1.66,.37-.92,.85-2.63,4.01-2.66,4.92Z"/><path class="j" d="M81.01,199.93c-.99,1.25,4-7.77,7.45-6.82,1.01,.28,2.79,2.35,2.11,2.41-2.35,.23-8.49,3.06-9.56,4.4Z"/><path class="j" d="M32.3,210.43c.88,.57-4.26-3.92-5.98-2.69-.5,.36-.99,1.94-.59,1.85,1.4-.3,5.62,.23,6.57,.83Z"/><path class="j" d="M97.3,206.28c-1.31,.51,7.38-.82,7.82-5,.13-1.22-.86-4.1-1.14-3.39-.99,2.44-5.27,7.84-6.68,8.39Z"/><path class="j" d="M32.09,200.11c-.52,.91,3.7-4.43,2.36-6.12-.39-.49-2.01-.93-1.9-.52,.39,1.4,.09,5.66-.47,6.64Z"/><path class="j" d="M29.04,201.89c.64,1.31-2.13-7.72-5.25-7.52-.91,.06-2.79,1.57-2.21,1.76,1.97,.66,6.77,4.36,7.46,5.76Z"/><path class="j" d="M72.83,202.86c.56,.76-1.94-4.68-4.49-4.21-.75,.14-2.25,1.31-1.77,1.37,1.63,.2,5.66,2.02,6.26,2.84Z"/><path class="j" d="M69.73,192.45c-.52,.79,3.71-3.44,2.39-5.67-.39-.65-2.01-1.65-1.89-1.19,.38,1.6,.07,6.01-.49,6.86Z"/><path class="j" d="M37.15,211.35c-.19,.7,1.75-3.61,.53-4.55-.36-.27-1.54-.31-1.39-.05,.51,.89,1.07,3.85,.86,4.6Z"/><path class="j" d="M57.79,209.07c-.57,.11,2.89-1.29,3.69-.06,.23,.36,.3,1.47,.08,1.31-.74-.57-3.17-1.37-3.78-1.25Z"/></g></g><g id="h"><g><path class="m" d="M69.44,156.1c-.08-.16,2.17-.49,5.34-.09,2.05,.26,4.31,.55,6.13,1.84,.25,.18,1.89,1.18,1.85,2.54-.04,1.1-1.47,1.78-3.06,1.51-1.95-.33-3.04-1.51-3.62-2.13-1.09-1.16-1.82-1.73-2.83-2.26-1.95-1.02-3.72-1.24-3.81-1.41Z"/><path class="m" d="M63.96,158.38c0-.23,2.7-.06,6.01,1.28,2.14,.87,4.51,1.83,5.84,3.94,.18,.29,1.47,1.99,.68,3.72-.64,1.39-2.61,1.88-4.24,1.13-1.99-.93-2.57-2.72-2.88-3.65-.58-1.76-1.08-2.68-1.92-3.62-1.61-1.81-3.48-2.55-3.48-2.8Z"/><path class="m" d="M63.94,155.69c.07-.14-1.74-.7-4.29-.69-1.65,0-3.48,.02-4.96,1-.2,.13-1.54,.87-1.53,2.14,0,1.02,1.15,1.81,2.43,1.74,1.57-.08,2.47-1.05,2.95-1.55,.9-.95,1.49-1.39,2.32-1.77,1.58-.72,3.01-.72,3.09-.87Z"/></g><g><path class="i" d="M51.05,157.91c.02-.19-2.26,0-5.15,1.14-1.87,.74-3.94,1.56-5.23,3.31-.18,.24-1.4,1.65-.88,3.05,.42,1.13,2.04,1.5,3.47,.86,1.75-.79,2.39-2.26,2.72-3.03,.64-1.45,1.13-2.2,1.92-2.98,1.51-1.5,3.13-2.14,3.16-2.34Z"/><path class="i" d="M79.13,165.31c0-.19,2.23,.19,4.98,1.58,1.78,.9,3.74,1.89,4.85,3.73,.15,.25,1.23,1.75,.58,3.09-.52,1.07-2.15,1.3-3.5,.54-1.65-.93-2.14-2.44-2.4-3.23-.49-1.49-.91-2.28-1.61-3.12-1.35-1.62-2.89-2.39-2.9-2.59Z"/><path class="i" d="M86.15,163.59c0-.13,1.49,.06,3.27,.91,1.15,.55,2.42,1.16,3.08,2.37,.09,.16,.74,1.15,.25,2.07-.4,.74-1.5,.95-2.37,.47-1.07-.58-1.33-1.58-1.47-2.11-.26-.99-.51-1.51-.94-2.06-.83-1.05-1.83-1.53-1.82-1.66Z"/><path class="i" d="M63.7,160.97c-.07-.13-1.64,.4-3.22,1.71-1.02,.85-2.16,1.78-2.32,3.21-.02,.19-.28,1.38,.71,2.24,.8,.69,2.13,.65,2.88-.05,.92-.85,.73-1.97,.63-2.56-.18-1.1-.15-1.71,.07-2.38,.42-1.3,1.32-2.03,1.25-2.17Z"/><path class="i" d="M56.21,163.33c.04-.21-2.56-.06-5.93,1.16-2.18,.79-4.58,1.66-6.16,3.6-.22,.26-1.7,1.82-1.2,3.4,.4,1.27,2.22,1.73,3.89,1.04,2.04-.84,2.86-2.48,3.29-3.34,.82-1.61,1.43-2.45,2.37-3.31,1.81-1.65,3.7-2.33,3.74-2.55Z"/></g><g><path class="o" d="M40.06,172.87c-.04-.2-2.28,.91-4.81,3.24-1.63,1.51-3.44,3.18-4.15,5.47-.1,.31-.85,2.24,.14,3.44,.8,.97,2.56,.69,3.78-.54,1.5-1.51,1.64-3.26,1.72-4.17,.15-1.73,.4-2.69,.92-3.8,1.01-2.14,2.43-3.44,2.39-3.65Z"/><path class="o" d="M57.91,170.85c.16-.18,1.67,2.44,2.7,6.53,.67,2.64,1.41,5.57,.69,8.42-.1,.39-.55,2.89-2.27,3.49-1.39,.48-2.93-.96-3.37-3.04-.54-2.55,.4-4.46,.89-5.47,.92-1.9,1.27-3.06,1.45-4.56,.33-2.88-.26-5.17-.09-5.37Z"/><path class="o" d="M70.18,170.31c.11-.19,2.33,1.1,4.5,3.63,1.4,1.64,2.95,3.45,3.03,5.77,.01,.32,.27,2.28-1.26,3.38-1.23,.88-3.16,.45-4.18-.88-1.24-1.62-.85-3.35-.65-4.26,.38-1.71,.4-2.69,.15-3.83-.48-2.19-1.7-3.61-1.59-3.81Z"/><path class="o" d="M85.6,178.02c.14-.13,1.7,1.52,2.89,4.21,.77,1.74,1.62,3.66,1.1,5.65-.07,.27-.35,2-1.93,2.54-1.27,.43-2.8-.42-3.32-1.8-.64-1.69,.13-3.05,.53-3.77,.76-1.35,1.03-2.17,1.1-3.2,.15-1.98-.53-3.48-.38-3.62Z"/><path class="o" d="M103.19,183.91c.18-.08,1.32,1.84,1.81,4.57,.32,1.77,.67,3.72-.39,5.34-.14,.22-.9,1.68-2.65,1.71-1.41,.02-2.74-1.17-2.91-2.55-.2-1.68,.96-2.68,1.56-3.21,1.14-.99,1.63-1.64,1.99-2.53,.69-1.72,.4-3.25,.59-3.33Z"/><path class="o" d="M26.98,177.99c-.16-.14-1.99,2.13-3.11,5.22-.72,1.99-1.52,4.2-.86,6.39,.09,.3,.49,2.22,2.19,2.72,1.37,.41,2.95-.65,3.43-2.22,.59-1.93-.31-3.41-.77-4.19-.88-1.47-1.05-2.44-1.19-3.59-.27-2.21,.49-4.18,.32-4.33Z"/></g><g><path class="n" d="M54.15,170.48c-.05-.13-1.53,.7-3.12,2.38-1.03,1.08-2.16,2.29-2.47,3.87-.04,.22-.41,1.55,.4,2.33,.65,.63,1.87,.38,2.63-.5,.93-1.08,.88-2.27,.86-2.89-.04-1.18,.05-1.84,.33-2.61,.53-1.49,1.43-2.42,1.38-2.56Z"/><path class="n" d="M92.3,173.56c.05-.2,2.39,.41,5,1.77,1.68,.88,3.55,1.84,4.23,3.78,.09,.26,.83,1.83-.27,3.32-.88,1.2-2.59,1.3-3.85,.54-1.54-.92-1.63-2.53-1.69-3.37-.1-1.59-.48-2.18-1-3.06-1-1.68-2.47-2.76-2.42-2.98Z"/><path class="n" d="M77.73,170.51c.05-.13,1.54,.41,3.11,1.7,1.01,.84,2.14,1.76,2.41,3.15,.04,.19,.38,1.35-.46,2.18-.68,.67-1.91,.62-2.66-.07-.92-.84-.84-1.93-.8-2.5,.07-1.08,0-1.67-.26-2.33-.5-1.27-1.38-1.99-1.33-2.13Z"/><path class="n" d="M37.2,168.33c0-.14-1.68,0-3.76,.88-1.35,.57-2.83,1.2-3.68,2.53-.12,.18-.93,1.26-.45,2.31,.39,.85,1.62,1.13,2.64,.64,1.25-.6,1.63-1.72,1.83-2.31,.38-1.1,.7-1.68,1.23-2.27,1.02-1.15,2.19-1.63,2.2-1.78Z"/></g></g></g></g></svg>